<svg class="main-svg" xmlns="http://www.w3.org/2000/svg" xmlns:xlink="http://www.w3.org/1999/xlink" width="500" height="425" style="" viewBox="0 0 500 425"><rect x="0" y="0" width="500" height="425" style="fill: rgb(0, 0, 0); fill-opacity: 0;"/><defs id="defs-cb10c2"><g class="clips"><clipPath id="clipcb10c2xyplot" class="plotclip"><rect width="302" height="385"/></clipPath><clipPath class="axesclip" id="clipcb10c2x"><rect x="41" y="0" width="302" height="425"/></clipPath><clipPath class="axesclip" id="clipcb10c2y"><rect x="0" y="0" width="500" height="385"/></clipPath><clipPath class="axesclip" id="clipcb10c2xy"><rect x="41" y="0" width="302" height="385"/></clipPath><clipPath class="contourclip" id="clip02c335"><path d="M26.75,70.83L244.94,70.83L244.94,699.17L26.75,699.17Z"/></clipPath></g><g class="gradients"/><g class="patterns"/></defs><g class="bglayer"><rect class="bg" x="41" y="0" width="302" height="385" style="fill: rgb(229, 236, 246); fill-opacity: 1; stroke-width: 0;"/></g><g class="layer-below"><g class="imagelayer"/><g class="shapelayer"/></g><g class="cartesianlayer"><g class="subplot xy"><g class="layer-subplot"><g class="shapelayer"/><g class="imagelayer"/></g><g class="minor-gridlayer"><g class="x"/><g class="y"/></g><g class="gridlayer"><g class="x"><path class="xgrid crisp" transform="translate(118.1,0)" d="M0,0v385" style="stroke: rgb(255, 255, 255); stroke-opacity: 1; stroke-width: 1px;"/><path class="xgrid crisp" transform="translate(185.24,0)" d="M0,0v385" style="stroke: rgb(255, 255, 255); stroke-opacity: 1; stroke-width: 1px;"/><path class="xgrid crisp" transform="translate(252.37,0)" d="M0,0v385" style="stroke: rgb(255, 255, 255); stroke-opacity: 1; stroke-width: 1px;"/><path class="xgrid crisp" transform="translate(319.5,0)" d="M0,0v385" style="stroke: rgb(255, 255, 255); stroke-opacity: 1; stroke-width: 1px;"/></g><g class="y"><path class="ygrid crisp" transform="translate(0,312.36)" d="M41,0h302" style="stroke: rgb(255, 255, 255); stroke-opacity: 1; stroke-width: 1px;"/><path class="ygrid crisp" transform="translate(0,239.72)" d="M41,0h302" style="stroke: rgb(255, 255, 255); stroke-opacity: 1; stroke-width: 1px;"/><path class="ygrid crisp" transform="translate(0,167.08)" d="M41,0h302" style="stroke: rgb(255, 255, 255); stroke-opacity: 1; stroke-width: 1px;"/><path class="ygrid crisp" transform="translate(0,94.43)" d="M41,0h302" style="stroke: rgb(255, 255, 255); stroke-opacity: 1; stroke-width: 1px;"/><path class="ygrid crisp" transform="translate(0,21.79)" d="M41,0h302" style="stroke: rgb(255, 255, 255); stroke-opacity: 1; stroke-width: 1px;"/></g></g><g class="zerolinelayer"><path class="xzl zl crisp" transform="translate(50.97,0)" d="M0,0v385" style="stroke: rgb(255, 255, 255); stroke-opacity: 1; stroke-width: 2px;"/><path class="yzl zl crisp" transform="translate(0,385)" d="M41,0h302" style="stroke: rgb(255, 255, 255); stroke-opacity: 1; stroke-width: 2px;"/></g><path class="xlines-below"/><path class="ylines-below"/><g class="overlines-below"/><g class="xaxislayer-below"/><g class="yaxislayer-below"/><g class="overaxes-below"/><g class="plot" transform="translate(41,0)" clip-path="url(#clipcb10c2xyplot)"><g class="contourlayer mlayer"><g class="contour" clip-path="url(#clip02c335)" style="opacity: 1;"><g class="heatmapcoloring"/><g class="contourbg"/><g class="contourfill"/><g class="contourlines"><g class="contourlevel"><path class="openline" d="M46.44,699.17Q46.41,697.54 46.41,696.72C46.41,695.9 46.42,695.09 46.44,694.27C46.46,693.45 46.5,692.63 46.54,691.81C46.58,690.99 46.64,690.18 46.7,689.36C46.77,688.54 46.84,687.71 46.93,686.9C47.02,686.1 47.11,685.31 47.215,684.505C47.32,683.68 47.43,682.82 47.56,681.99C47.69,681.17 47.88,680.05 47.97,679.54C48.01,679.31 48.02,679.26 48.06,679.04C48.14,678.6 48.29,677.77 48.42,677.08C48.57,676.32 48.75,675.49 48.92,674.6800000000001C49.1,673.85 49.32,672.86 49.48,672.18C49.59,671.71 49.66,671.4 49.76,671C49.86,670.58 49.96,670.2 50.08,669.72C50.24,669.11 50.52,668.05 50.62,667.64C50.66,667.47 50.66,667.45 50.71,667.27C50.83,666.81 51.26,665.24 51.38,664.81C51.42,664.65 51.43,664.64 51.47,664.49C51.58,664.09 51.91,662.92 52.07,662.36C52.17,662 52.22,661.82 52.32,661.48C52.45,661.03 52.64,660.4 52.79,659.9C52.92,659.44 53.04,659 53.17,658.58C53.29,658.19 53.39,657.86 53.52,657.45C53.67,656.94 53.88,656.21 54.02,655.76C54.12,655.45 54.17,655.31 54.27,654.99C54.43,654.48 54.74,653.43 54.88,653C54.95,652.79 54.96,652.75 55.03,652.54C55.18,652.06 55.51,650.99 55.769999999999996,650.1949999999999C56.04,649.37 56.32,648.5 56.595,647.665C56.87,646.83 57.15,646 57.435,645.185C57.72,644.37 58.02,643.55 58.31,642.7750000000001C58.59,642.04 58.97,641.04 59.14,640.63C59.21,640.46 59.22,640.43 59.29,640.27C59.44,639.92 59.79,639.06 59.99,638.61C60.13,638.29 60.23,638.09 60.36,637.81C60.51,637.49 60.66,637.15 60.84,636.78C61.05,636.34 61.43,635.64 61.57,635.36C61.63,635.24 61.64,635.23 61.7,635.11C61.86,634.81 62.32,633.96 62.55,633.55C62.7,633.29 62.8,633.13 62.93,632.9C63.08,632.65 63.22,632.41 63.4,632.11C63.64,631.72 64.05,631.07 64.25,630.78C64.35,630.63 64.39,630.59 64.48,630.45C64.64,630.22 64.87,629.85 65.1,629.52C65.36,629.15 65.75,628.62 65.96,628.34C66.07,628.19 66.12,628.13 66.23,627.99C66.39,627.78 66.6,627.5 66.81,627.22C67.06,626.89 67.41,626.46 67.66,626.15C67.85,625.92 68.03,625.72 68.18,625.54C68.3,625.39 68.37,625.29 68.51,625.13C68.73,624.87 69.08,624.47 69.37,624.14C69.67,623.81 69.98,623.47 70.275,623.145C70.55,622.84 70.8,622.56 71.07,622.27C71.35,621.97 71.64,621.67 71.92,621.38C72.19,621.1 72.44,620.85 72.72,620.575C73.01,620.28 73.33,619.96 73.63,619.66C73.92,619.38 74.21,619.09 74.48,618.83C74.73,618.6 75.05,618.32 75.19,618.18C75.26,618.12 75.26,618.11 75.33,618.04C75.49,617.88 75.89,617.49 76.18,617.22C76.46,616.95 76.75,616.69 77.04,616.44C77.32,616.19 77.6,615.96 77.88,615.71C78.17,615.45 78.45,615.18 78.74,614.92C79.02,614.67 79.3,614.41 79.59,614.17C79.87,613.93 80.25,613.62 80.45,613.46C80.55,613.38 80.59,613.35 80.69,613.27C80.85,613.14 81.08,612.91 81.3,612.72C81.56,612.49 81.87,612.23 82.15,611.99C82.43,611.75 82.74,611.51 83,611.3C83.23,611.12 83.49,610.94 83.64,610.81C83.73,610.73 83.76,610.7 83.85,610.62C84.04,610.45 84.42,610.13 84.71,609.89C84.99,609.66 85.27,609.42 85.56,609.2C85.84,608.98 86.2,608.71 86.41,608.56C86.53,608.47 86.59,608.45 86.7,608.36C86.86,608.23 87.05,608.04 87.26,607.86C87.51,607.64 87.83,607.38 88.12,607.15C88.4,606.93 88.68,606.72 88.97,606.51C89.26,606.3 89.56,606.13 89.835,605.91C90.12,605.68 90.39,605.39 90.67,605.14C90.95,604.89 91.24,604.65 91.53,604.43C91.81,604.21 92.11,603.99 92.38,603.82C92.61,603.67 92.9,603.6 93.04,603.45C93.15,603.33 93.14,603.22 93.23,603.04C93.41,602.67 93.87,601.72 94.08,601.37C94.19,601.19 94.37,601.07 94.35,600.99C94.33,600.93 94.18,600.96 94.08,600.88C93.86,600.71 93.45,600.21 93.23,599.82C93.01,599.43 92.94,598.86 92.76,598.54C92.64,598.33 92.52,598.27 92.38,598.05C92.14,597.67 91.69,596.76 91.53,596.42C91.46,596.27 91.47,596.23 91.4,596.09C91.26,595.79 90.88,595.2 90.67,594.77C90.48,594.38 90.36,593.96 90.2,593.63C90.07,593.36 89.96,593.21 89.82,592.91C89.61,592.46 89.22,591.49 89.08,591.18C89.03,591.07 89.02,591.07 88.97,590.95C88.81,590.6 88.37,589.52 88.08500000000001,588.815C87.8,588.13 87.43,587.25 87.26,586.79C87.17,586.56 87.16,586.49 87.08,586.27C86.93,585.85 86.57,584.93 86.41,584.48C86.31,584.2 86.28,584.09 86.19,583.81C86.04,583.35 85.71,582.45 85.56,582C85.47,581.73 85.45,581.63 85.36,581.36C85.21,580.87 84.84,579.74 84.71,579.32C84.65,579.13 84.64,579.1 84.58,578.9C84.43,578.42 84.08,577.28 83.845,576.47C83.6,575.65 83.28,574.51 83.14,574C83.08,573.77 83.06,573.72 83,573.5C82.88,573.06 82.62,572.12 82.47,571.54C82.35,571.09 82.25,570.73 82.15,570.32C82.04,569.91 81.96,569.57 81.84,569.09C81.68,568.44 81.46,567.56 81.27,566.76C81.07,565.92 80.8,564.82 80.65,564.18C80.56,563.8 80.53,563.62 80.45,563.28C80.35,562.83 80.23,562.29 80.1,561.72C79.94,561.01 79.75,560.15 79.575,559.3399999999999C79.4,558.51 79.2,557.54 79.05,556.81C78.93,556.25 78.83,555.77 78.74,555.33C78.67,554.97 78.63,554.76 78.55,554.36C78.43,553.73 78.19,552.53 78.07,551.91C78,551.52 77.96,551.32 77.89,550.97C77.8,550.52 77.71,550.02 77.6,549.45C77.47,548.73 77.26,547.56 77.16,547C77.11,546.71 77.09,546.61 77.04,546.34C76.96,545.89 76.83,545.19 76.72,544.54C76.59,543.79 76.39,542.65 76.29,542.09C76.24,541.8 76.23,541.71 76.18,541.44C76.1,540.99 75.99,540.28 75.88,539.63C75.76,538.88 75.58,537.79 75.48,537.18C75.42,536.81 75.39,536.64 75.33,536.3C75.26,535.85 75.17,535.3 75.08,534.72C74.96,533.99 74.8,532.97 74.69,532.27C74.61,531.75 74.55,531.34 74.48,530.91C74.42,530.52 74.38,530.25 74.31,529.81C74.21,529.15 74.06,528.14 73.94,527.36C73.83,526.64 73.69,525.7 73.63,525.29C73.6,525.11 73.6,525.09 73.57,524.91C73.5,524.45 73.33,523.27 73.21,522.45C73.09,521.63 72.93,520.52 72.85,520C72.81,519.76 72.8,519.71 72.77,519.48C72.71,519.04 72.6,518.22 72.5,517.54C72.39,516.77 72.25,515.83 72.15,515.09C72.06,514.48 71.98,513.88 71.92,513.43C71.88,513.12 71.86,512.97 71.81,512.63C71.73,512.04 71.59,511 71.48,510.18C71.37,509.36 71.22,508.26 71.15,507.72C71.11,507.46 71.1,507.38 71.07,507.13C71.01,506.68 70.91,505.93 70.82,505.27C70.72,504.51 70.61,503.63 70.51,502.82C70.41,502.02 70.31,501.24 70.21000000000001,500.43C70.11,499.6 69.99,498.75 69.89,497.91C69.79,497.09 69.69,496.23 69.6,495.45C69.52,494.75 69.42,493.9 69.37,493.47C69.34,493.26 69.34,493.22 69.31,493C69.25,492.5 69.12,491.36 69.03,490.54C68.94,489.72 68.84,488.9 68.75,488.09C68.66,487.3 68.58,486.56 68.495,485.765C68.4,484.93 68.31,484.03 68.22,483.18C68.13,482.35 68.05,481.55 67.97,480.73C67.89,479.91 67.77,478.82 67.72,478.27C67.69,477.99 67.69,477.9 67.66,477.63C67.62,477.18 67.54,476.47 67.48,475.82C67.41,475.06 67.33,474.18 67.25,473.36C67.18,472.54 67.1,471.73 67.03,470.91C66.96,470.08 66.89,469.23 66.815,468.405C66.75,467.6 66.68,466.81 66.61,466C66.54,465.18 66.48,464.36 66.41,463.54C66.34,462.72 66.27,461.91 66.21,461.09C66.15,460.27 66.08,459.27 66.03,458.63C66,458.22 65.99,457.99 65.96,457.62C65.93,457.18 65.89,456.72 65.85,456.18C65.8,455.47 65.74,454.55 65.68,453.73C65.62,452.91 65.56,452.09 65.51,451.27C65.46,450.45 65.41,449.64 65.36,448.82C65.31,448 65.26,447.12 65.21,446.36C65.17,445.71 65.12,445.01 65.1,444.56C65.09,444.29 65.08,444.2 65.07,443.91C65.04,443.35 64.98,442.27 64.93,441.45C64.89,440.63 64.84,439.82 64.8,439C64.76,438.18 64.71,437.36 64.67,436.54C64.63,435.72 64.6,434.91 64.56,434.09C64.52,433.27 64.49,432.46 64.45,431.64C64.41,430.82 64.37,429.99 64.34,429.18C64.31,428.38 64.28,427.59 64.25,426.78C64.22,425.95 64.19,425.1 64.16,424.27C64.13,423.45 64.1,422.64 64.07,421.82C64.04,421 64.02,420.18 63.99,419.36C63.96,418.54 63.93,417.73 63.91,416.91C63.88,416.09 63.86,415.27 63.84,414.45C63.82,413.63 63.8,412.82 63.78,412C63.76,411.18 63.74,410.36 63.72,409.54C63.7,408.72 63.69,407.91 63.67,407.09C63.66,406.27 63.64,405.46 63.63,404.64C63.62,403.82 63.6,403 63.59,402.18C63.58,401.36 63.57,400.55 63.56,399.73C63.55,398.91 63.54,398.09 63.53,397.27C63.52,396.45 63.51,395.64 63.5,394.82C63.49,394 63.5,393.18 63.49,392.36C63.49,391.54 63.47,390.73 63.47,389.91C63.47,389.09 63.47,388.27 63.47,387.45C63.47,386.63 63.46,385.82 63.46,385C63.46,384.18 63.47,383.37 63.47,382.55C63.47,381.73 63.47,380.91 63.47,380.09C63.47,379.27 63.49,378.46 63.49,377.64C63.5,376.82 63.49,376 63.5,375.18C63.51,374.36 63.52,373.55 63.53,372.73C63.54,371.91 63.55,371.09 63.56,370.27C63.57,369.45 63.58,368.64 63.59,367.82C63.6,367 63.62,366.18 63.63,365.36C63.64,364.54 63.66,363.73 63.67,362.91C63.69,362.09 63.7,361.28 63.72,360.46C63.74,359.64 63.76,358.82 63.78,358C63.8,357.18 63.82,356.37 63.84,355.55C63.86,354.73 63.88,353.91 63.91,353.09C63.93,352.27 63.96,351.46 63.99,350.64C64.02,349.82 64.04,349 64.07,348.18C64.1,347.36 64.13,346.55 64.16,345.73C64.19,344.9 64.22,344.05 64.25,343.22C64.28,342.41 64.31,341.62 64.34,340.82C64.37,340.01 64.41,339.18 64.45,338.36C64.49,337.54 64.52,336.73 64.56,335.91C64.6,335.09 64.63,334.28 64.67,333.46C64.71,332.64 64.76,331.82 64.8,331C64.84,330.18 64.89,329.37 64.93,328.55C64.98,327.73 65.04,326.65 65.07,326.09C65.08,325.8 65.09,325.71 65.1,325.44C65.12,324.99 65.17,324.29 65.21,323.64C65.26,322.88 65.31,322 65.36,321.18C65.41,320.36 65.46,319.55 65.51,318.73C65.56,317.91 65.62,317.09 65.68,316.27C65.74,315.45 65.8,314.53 65.85,313.82C65.89,313.28 65.93,312.82 65.96,312.38C65.99,312.01 66,311.78 66.03,311.37C66.08,310.73 66.15,309.73 66.21,308.91C66.27,308.09 66.34,307.28 66.41,306.46C66.48,305.64 66.54,304.82 66.61,304C66.68,303.19 66.75,302.4 66.815,301.595C66.89,300.77 66.96,299.92 67.03,299.09C67.1,298.27 67.18,297.46 67.25,296.64C67.33,295.82 67.41,294.94 67.48,294.18C67.54,293.53 67.62,292.82 67.66,292.37C67.69,292.1 67.69,292.01 67.72,291.73C67.77,291.18 67.89,290.09 67.97,289.27C68.05,288.45 68.13,287.65 68.22,286.82C68.31,285.97 68.4,285.07 68.495,284.235C68.58,283.44 68.66,282.7 68.75,281.91C68.84,281.1 68.94,280.28 69.03,279.46C69.12,278.64 69.25,277.5 69.31,277C69.34,276.78 69.34,276.74 69.37,276.53C69.42,276.1 69.52,275.25 69.6,274.55C69.69,273.77 69.79,272.91 69.89,272.09C69.99,271.25 70.11,270.4 70.21000000000001,269.57C70.31,268.76 70.41,267.98 70.51,267.18C70.61,266.37 70.72,265.49 70.82,264.73C70.91,264.07 71.01,263.32 71.07,262.87C71.1,262.62 71.11,262.54 71.15,262.28C71.22,261.74 71.37,260.64 71.48,259.82C71.59,259 71.73,257.96 71.81,257.37C71.86,257.03 71.88,256.88 71.92,256.57C71.98,256.12 72.06,255.52 72.15,254.91C72.25,254.17 72.39,253.23 72.5,252.46C72.6,251.78 72.71,250.96 72.77,250.52C72.8,250.29 72.81,250.24 72.85,250C72.93,249.48 73.09,248.37 73.21,247.55C73.33,246.73 73.5,245.55 73.57,245.09C73.6,244.91 73.6,244.89 73.63,244.71C73.69,244.3 73.83,243.36 73.94,242.64C74.06,241.86 74.21,240.85 74.31,240.19C74.38,239.75 74.42,239.48 74.48,239.09C74.55,238.66 74.61,238.25 74.69,237.73C74.8,237.03 74.96,236.01 75.08,235.28C75.17,234.7 75.26,234.15 75.33,233.7C75.39,233.36 75.42,233.19 75.48,232.82C75.58,232.21 75.76,231.12 75.88,230.37C75.99,229.72 76.1,229.01 76.18,228.56C76.23,228.29 76.24,228.2 76.29,227.91C76.39,227.35 76.59,226.21 76.72,225.46C76.83,224.81 76.96,224.11 77.04,223.66C77.09,223.39 77.11,223.29 77.16,223C77.26,222.44 77.47,221.27 77.6,220.55C77.71,219.98 77.8,219.48 77.89,219.03C77.96,218.68 78,218.48 78.07,218.09C78.19,217.47 78.43,216.27 78.55,215.64C78.63,215.24 78.67,215.03 78.74,214.67C78.83,214.23 78.93,213.75 79.05,213.19C79.2,212.46 79.4,211.49 79.575,210.66C79.75,209.85 79.94,208.99 80.1,208.28C80.23,207.71 80.35,207.17 80.45,206.72C80.53,206.38 80.56,206.2 80.65,205.82C80.8,205.18 81.07,204.08 81.27,203.24C81.46,202.44 81.68,201.56 81.84,200.91C81.96,200.43 82.04,200.09 82.15,199.68C82.25,199.27 82.35,198.91 82.47,198.46C82.62,197.88 82.88,196.94 83,196.5C83.06,196.28 83.08,196.23 83.14,196C83.28,195.49 83.6,194.35 83.845,193.53C84.08,192.72 84.43,191.58 84.58,191.1C84.64,190.9 84.65,190.87 84.71,190.68C84.84,190.26 85.21,189.13 85.36,188.64C85.45,188.37 85.47,188.27 85.56,188C85.71,187.55 86.04,186.65 86.19,186.19C86.28,185.91 86.31,185.8 86.41,185.52C86.57,185.07 86.93,184.15 87.08,183.73C87.16,183.51 87.17,183.44 87.26,183.21C87.43,182.75 87.8,181.87 88.08500000000001,181.185C88.37,180.48 88.81,179.4 88.97,179.05C89.02,178.93 89.03,178.93 89.08,178.82C89.22,178.51 89.61,177.53 89.82,177.08C89.96,176.79 90.07,176.64 90.2,176.37C90.36,176.04 90.48,175.62 90.67,175.23C90.88,174.8 91.26,174.21 91.4,173.91C91.47,173.77 91.46,173.73 91.53,173.58C91.69,173.24 92.14,172.32 92.38,171.94C92.52,171.72 92.64,171.67 92.76,171.46C92.94,171.15 93.01,170.57 93.23,170.18C93.45,169.79 93.86,169.27 94.08,169.11C94.18,169.04 94.32,169.07 94.34,169.01C94.36,168.93 94.18,168.81 94.08,168.64C93.87,168.29 93.41,167.33 93.23,166.96C93.14,166.78 93.15,166.67 93.04,166.55C92.9,166.4 92.61,166.33 92.38,166.18C92.11,166.01 91.81,165.79 91.53,165.57C91.24,165.35 90.95,165.11 90.67,164.86C90.39,164.61 90.12,164.32 89.835,164.09C89.56,163.87 89.25,163.71 88.97,163.5C88.68,163.29 88.4,163.07 88.12,162.85C87.83,162.62 87.51,162.36 87.26,162.14C87.05,161.96 86.86,161.77 86.7,161.64C86.59,161.55 86.53,161.53 86.41,161.44C86.2,161.29 85.84,161.02 85.56,160.8C85.27,160.58 84.99,160.34 84.71,160.11C84.42,159.87 84.04,159.55 83.85,159.38C83.76,159.3 83.73,159.27 83.64,159.19C83.49,159.06 83.23,158.88 83,158.7C82.74,158.49 82.43,158.25 82.15,158.01C81.87,157.77 81.56,157.51 81.3,157.28C81.08,157.09 80.85,156.86 80.69,156.73C80.59,156.65 80.55,156.62 80.45,156.54C80.25,156.38 79.87,156.07 79.59,155.83C79.3,155.59 79.02,155.33 78.74,155.08C78.45,154.82 78.17,154.55 77.88,154.29000000000002C77.6,154.04 77.32,153.81 77.04,153.56C76.75,153.31 76.46,153.05 76.18,152.78C75.89,152.51 75.49,152.12 75.33,151.96C75.26,151.89 75.26,151.88 75.19,151.82C75.05,151.68 74.73,151.4 74.48,151.17C74.21,150.91 73.92,150.62 73.63,150.34C73.33,150.04 73.01,149.72 72.72,149.425C72.44,149.15 72.19,148.9 71.92,148.62C71.64,148.33 71.35,148.03 71.07,147.73C70.8,147.44 70.55,147.16 70.275,146.85500000000002C69.98,146.53 69.67,146.19 69.37,145.86C69.08,145.53 68.73,145.13 68.51,144.87C68.37,144.71 68.3,144.61 68.18,144.46C68.03,144.28 67.85,144.08 67.66,143.85C67.41,143.54 67.06,143.11 66.81,142.78C66.6,142.5 66.39,142.22 66.23,142.01C66.12,141.87 66.07,141.8 65.96,141.65C65.75,141.37 65.36,140.85 65.1,140.48C64.87,140.15 64.64,139.78 64.48,139.55C64.39,139.41 64.35,139.37 64.25,139.22C64.05,138.93 63.64,138.28 63.4,137.89C63.22,137.59 63.08,137.35 62.93,137.1C62.8,136.87 62.7,136.71 62.55,136.45C62.32,136.04 61.86,135.19 61.7,134.89C61.64,134.77 61.63,134.76 61.57,134.64C61.43,134.36 61.05,133.66 60.84,133.22C60.66,132.85 60.51,132.51 60.36,132.19C60.23,131.91 60.13,131.71 59.99,131.39C59.79,130.94 59.44,130.08 59.29,129.73C59.22,129.57 59.21,129.54 59.14,129.37C58.97,128.96 58.59,127.96 58.31,127.225C58.02,126.45 57.72,125.63 57.44,124.82C57.15,124 56.87,123.17 56.59,122.33500000000001C56.31,121.5 56.03,120.63 55.769999999999996,119.805C55.52,119.01 55.18,117.94 55.03,117.46C54.96,117.25 54.95,117.21 54.88,117C54.74,116.57 54.43,115.52 54.27,115.01C54.17,114.69 54.12,114.55 54.02,114.24C53.88,113.79 53.67,113.06 53.52,112.55C53.39,112.14 53.29,111.81 53.17,111.42C53.04,111 52.92,110.56 52.79,110.1C52.64,109.6 52.45,108.97 52.32,108.52C52.22,108.18 52.17,108 52.07,107.64C51.91,107.08 51.58,105.91 51.47,105.51C51.43,105.36 51.42,105.35 51.38,105.19C51.26,104.76 50.83,103.19 50.71,102.73C50.66,102.55 50.66,102.53 50.62,102.36C50.52,101.95 50.24,100.89 50.08,100.28C49.96,99.8 49.86,99.42 49.76,99C49.66,98.6 49.59,98.29 49.48,97.82C49.32,97.14 49.1,96.15 48.92,95.32C48.75,94.51 48.57,93.68 48.42,92.92C48.29,92.23 48.14,91.4 48.06,90.96C48.02,90.74 48.01,90.69 47.97,90.46C47.88,89.95 47.69,88.83 47.56,88.01C47.43,87.18 47.32,86.32 47.215,85.495C47.11,84.69 47.02,83.9 46.93,83.1C46.84,82.29 46.77,81.46 46.7,80.64C46.64,79.82 46.58,79.01 46.54,78.19C46.5,77.37 46.46,76.55 46.44,75.73C46.42,74.91 46.41,74.1 46.41,73.28Q46.41,72.46 46.44,70.83" style="stroke-miterlimit: 1; vector-effect: non-scaling-stroke; fill: none; stroke: rgb(178, 10, 28); stroke-opacity: 1; stroke-width: 2px;"/><path class="openline" d="M244.94,77.03Q244.37,77.13 244.08,77.18C243.8,77.23 243.51,77.28 243.23,77.33C242.95,77.38 242.66,77.42 242.38,77.46C242.1,77.5 241.81,77.54 241.53,77.58C241.24,77.62 240.96,77.66 240.67,77.7C240.39,77.74 240.1,77.77 239.82,77.8C239.54,77.83 239.25,77.87 238.97,77.9C238.69,77.93 238.4,77.96 238.12,77.99C237.84,78.02 237.55,78.05 237.27,78.07C236.98,78.1 236.69,78.12 236.41,78.14C236.14,78.16 235.89,78.18 235.62,78.195C235.33,78.21 235.01,78.23 234.71,78.25C234.42,78.27 234.14,78.29 233.86,78.3C233.57,78.32 233.29,78.33 233,78.34C232.72,78.35 232.43,78.36 232.15,78.37C231.87,78.38 231.58,78.39 231.3,78.4C231.02,78.41 230.73,78.41 230.45,78.41C230.17,78.41 229.88,78.42 229.6,78.42C229.31,78.42 229.03,78.43 228.74,78.43C228.46,78.43 228.17,78.42 227.89,78.42C227.61,78.42 227.32,78.41 227.04,78.41C226.76,78.41 226.47,78.4 226.19,78.4C225.9,78.39 225.62,78.39 225.33,78.38C225.05,78.37 224.76,78.36 224.48,78.35C224.2,78.34 223.91,78.33 223.63,78.32C223.35,78.31 223.06,78.29 222.78,78.28C222.49,78.26 222.2,78.25 221.92,78.23C221.64,78.22 221.38,78.21 221.105,78.19C220.82,78.17 220.51,78.15 220.22,78.13C219.93,78.11 219.65,78.09 219.37,78.07C219.09,78.05 218.8,78.03 218.52,78.01C218.23,77.99 217.95,77.97 217.66,77.95C217.38,77.93 217.09,77.9 216.81,77.88C216.53,77.85 216.24,77.83 215.96,77.8C215.68,77.78 215.39,77.75 215.11,77.73C214.82,77.7 214.54,77.68 214.25,77.65C213.97,77.62 213.68,77.59 213.4,77.56C213.12,77.53 212.83,77.51 212.55,77.48C212.27,77.45 211.98,77.42 211.7,77.39C211.41,77.36 211.13,77.33 210.84,77.3C210.56,77.27 210.27,77.23 209.99,77.2C209.71,77.17 209.42,77.14 209.14,77.11C208.86,77.08 208.57,77.04 208.29,77.01C208.01,76.98 207.72,76.95 207.44,76.92C207.15,76.89 206.87,76.85 206.58,76.82C206.3,76.79 206.01,76.75 205.73,76.72C205.45,76.69 205.16,76.65 204.88,76.62C204.6,76.59 204.31,76.55 204.03,76.52C203.74,76.49 203.46,76.45 203.17,76.42C202.89,76.39 202.6,76.35 202.32,76.32C202.04,76.29 201.75,76.25 201.47,76.22C201.19,76.19 200.9,76.16 200.62,76.13C200.34,76.1 200.05,76.06 199.77,76.03C199.48,76 199.2,75.97 198.91,75.94C198.63,75.91 198.34,75.87 198.06,75.84C197.78,75.81 197.39,75.77 197.21,75.75C197.12,75.74 197.1,75.74 197.02,75.73C196.87,75.71 196.59,75.68 196.36,75.66C196.09,75.63 195.79,75.61 195.5,75.58C195.22,75.55 194.93,75.52 194.65,75.49C194.37,75.46 194.08,75.44 193.8,75.41C193.52,75.39 193.23,75.36 192.95,75.34C192.66,75.32 192.38,75.29 192.09,75.27C191.81,75.25 191.52,75.22 191.24,75.2C190.96,75.18 190.67,75.16 190.39,75.14C190.11,75.12 189.82,75.1 189.54,75.08C189.26,75.06 188.97,75.04 188.69,75.03C188.4,75.01 188.12,75 187.83,74.99C187.55,74.98 187.26,74.96 186.98,74.95C186.7,74.94 186.41,74.93 186.13,74.92C185.85,74.91 185.56,74.9 185.28,74.89C184.99,74.88 184.71,74.88 184.42,74.88C184.14,74.88 183.85,74.87 183.57,74.87C183.29,74.87 183,74.88 182.72,74.88C182.44,74.88 182.15,74.88 181.87,74.89C181.59,74.9 181.3,74.91 181.02,74.92C180.73,74.93 180.45,74.94 180.16,74.96C179.88,74.97 179.59,74.99 179.31,75.01C179.03,75.03 178.74,75.05 178.46,75.07C178.18,75.09 177.89,75.12 177.61,75.15C177.32,75.18 177.04,75.21 176.75,75.24C176.47,75.27 176.18,75.31 175.9,75.35C175.62,75.39 175.33,75.43 175.05,75.48C174.77,75.53 174.45,75.58 174.2,75.63C174,75.67 173.81,75.7 173.65,75.73C173.53,75.75 173.47,75.76 173.34,75.79C173.13,75.83 172.77,75.92 172.49,75.98C172.21,76.05 171.92,76.11 171.64,76.18C171.36,76.25 171.07,76.33 170.79,76.41C170.51,76.49 170.22,76.58 169.94,76.67C169.65,76.76 169.36,76.86 169.08,76.96C168.79,77.06 168.51,77.17 168.23,77.28C167.95,77.39 167.66,77.51 167.38,77.63C167.1,77.75 166.75,77.92 166.53,78.02C166.39,78.09 166.31,78.13 166.18,78.19C166.03,78.26 165.86,78.33 165.67,78.43C165.42,78.55 165.1,78.72 164.82,78.88C164.54,79.04 164.25,79.2 163.97,79.37C163.68,79.54 163.4,79.72 163.12,79.91C162.83,80.1 162.45,80.36 162.26,80.49C162.17,80.55 162.15,80.58 162.06,80.64C161.91,80.75 161.64,80.93 161.41,81.1C161.14,81.3 160.84,81.53 160.56,81.76C160.27,81.99 159.98,82.24 159.71,82.47C159.46,82.68 159.16,82.97 159.01,83.1C158.94,83.16 158.93,83.17 158.86,83.23C158.69,83.38 158.28,83.74 158,84.01C157.71,84.28 157.41,84.58 157.15,84.85C156.91,85.09 156.64,85.39 156.49,85.55C156.41,85.63 156.38,85.65 156.3,85.74C156.12,85.93 155.73,86.35 155.45,86.66C155.16,86.98 154.81,87.38 154.59,87.63C154.46,87.78 154.39,87.87 154.27,88.01C154.12,88.19 153.94,88.39 153.74,88.62C153.49,88.92 153.15,89.33 152.89,89.66C152.66,89.94 152.42,90.26 152.26,90.46C152.17,90.57 152.14,90.61 152.04,90.73C151.85,90.97 151.47,91.46 151.19,91.83C150.91,92.2 150.63,92.57 150.35000000000002,92.94C150.06,93.32 149.77,93.71 149.48,94.1C149.19,94.5 148.89,94.93 148.6,95.33000000000001C148.32,95.72 148.06,96.08 147.78,96.47C147.48,96.88 147.17,97.34 146.875,97.755C146.6,98.15 146.34,98.51 146.07,98.91C145.78,99.33 145.47,99.79 145.175,100.215C144.9,100.62 144.64,100.99 144.37,101.39C144.08,101.81 143.77,102.26 143.485,102.69C143.21,103.1 142.94,103.49 142.66,103.9C142.38,104.32 142.09,104.76 141.805,105.18C141.52,105.6 141.24,106.01 140.96,106.43C140.68,106.84 140.41,107.25 140.125,107.67C139.84,108.1 139.54,108.54 139.25,108.96C138.97,109.37 138.72,109.75 138.44,110.16C138.15,110.59 137.83,111.06 137.55,111.48C137.3,111.86 136.96,112.34 136.82,112.55C136.76,112.63 136.76,112.64 136.7,112.73C136.54,112.96 136.11,113.59 135.84,113.99C135.59,114.35 135.29,114.79 135.14,115.01C135.07,115.11 135.06,115.13 134.99,115.23C134.82,115.48 134.41,116.08 134.14,116.47C133.9,116.82 133.6,117.25 133.45,117.46C133.38,117.56 133.36,117.58 133.29,117.69C133.12,117.94 132.7,118.53 132.43,118.92C132.18,119.27 131.88,119.71 131.73,119.92C131.66,120.02 131.65,120.03 131.58,120.13C131.41,120.37 131.01,120.95 130.73,121.34C130.46,121.72 130.21,122.07 129.935,122.45500000000001C129.64,122.87 129.33,123.32 129.03,123.73C128.75,124.12 128.48,124.48 128.2,124.865C127.91,125.26 127.61,125.69 127.32,126.09C127.03,126.49 126.74,126.87 126.455,127.25999999999999C126.17,127.64 125.9,128.03 125.62,128.41C125.34,128.79 124.93,129.33 124.76,129.55C124.69,129.64 124.68,129.65 124.62,129.73C124.47,129.92 124.16,130.37 123.91,130.7C123.64,131.06 123.27,131.56 123.06,131.83C122.94,131.98 122.89,132.05 122.78,132.19C122.62,132.4 122.42,132.68 122.21,132.96C121.96,133.3 121.6,133.76 121.36,134.07C121.18,134.29 121.05,134.45 120.9,134.64C120.76,134.82 120.66,134.97 120.5,135.18C120.27,135.48 119.92,135.95 119.65,136.29C119.42,136.58 119.15,136.9 119,137.1C118.91,137.21 118.89,137.25 118.8,137.37C118.62,137.61 118.24,138.12 117.95,138.48C117.67,138.84 117.37,139.19 117.08500000000001,139.54500000000002C116.8,139.91 116.52,140.28 116.24,140.64C115.96,141 115.59,141.45 115.39,141.7C115.28,141.83 115.23,141.88 115.13,142.01C114.97,142.21 114.76,142.5 114.54,142.78C114.28,143.11 113.93,143.53 113.68,143.84C113.49,144.08 113.31,144.27 113.16,144.46C113.04,144.62 112.97,144.72 112.83,144.9C112.61,145.18 112.26,145.62 111.98,145.97C111.71,146.31 111.44,146.61 111.16,146.95C110.87,147.31 110.57,147.71 110.28,148.08C109.99,148.43 109.62,148.88 109.42,149.11C109.32,149.23 109.28,149.26 109.19,149.37C109.03,149.56 108.8,149.9 108.57,150.18C108.31,150.51 107.97,150.92 107.72,151.22C107.53,151.45 107.34,151.63 107.19,151.82C107.07,151.98 107.01,152.09 106.87,152.27C106.66,152.55 106.3,152.99 106.01,153.34C105.73,153.67 105.46,153.97 105.185,154.31C104.89,154.67 104.6,155.08 104.31,155.45C104.03,155.8 103.66,156.24 103.46,156.47C103.36,156.59 103.31,156.61 103.22,156.73C103.06,156.93 102.83,157.28 102.6,157.58C102.34,157.92 102,158.35 101.75,158.64C101.57,158.86 101.4,159 101.25,159.19C101.12,159.36 101.05,159.51 100.9,159.72C100.68,160.03 100.33,160.49 100.05,160.83C99.81,161.13 99.47,161.45 99.33,161.64C99.26,161.74 99.27,161.77 99.2,161.87C99.04,162.12 98.64,162.72 98.34,163.1C98.06,163.45 97.74,163.7 97.47,164.07999999999998C97.17,164.5 96.95,165.12 96.64,165.54C96.36,165.92 95.89,166.1 95.73,166.515C95.54,167.01 95.77,167.92 95.79,168.38C95.8,168.65 95.72,168.83 95.82,169.01C95.95,169.23 96.37,169.32 96.64,169.51C96.93,169.72 97.22,169.96 97.49,170.23C97.78,170.51 98.16,170.94 98.34,171.17C98.44,171.29 98.45,171.36 98.55,171.46C98.7,171.61 98.97,171.77 99.2,171.96C99.47,172.18 99.77,172.46 100.05,172.73C100.34,173.02 100.71,173.42 100.9,173.64C101,173.75 101.02,173.81 101.12,173.91C101.27,174.07 101.53,174.26 101.75,174.47C102.02,174.72 102.32,175.01 102.6,175.31C102.9,175.62 103.21,176 103.505,176.31C103.78,176.6 104.04,176.83 104.31,177.11C104.59,177.4 104.89,177.72 105.16,178.02C105.4,178.29 105.7,178.65 105.85,178.82C105.92,178.9 105.94,178.91 106.01,178.99C106.18,179.17 106.59,179.58 106.87,179.89C107.16,180.2 107.5,180.59 107.72,180.85C107.86,181.02 107.93,181.13 108.06,181.28C108.21,181.45 108.38,181.61 108.57,181.82C108.82,182.09 109.14,182.46 109.42,182.79C109.7,183.11 109.96,183.44 110.24000000000001,183.76999999999998C110.53,184.11 110.84,184.45 111.13,184.79C111.42,185.13 111.78,185.56 111.98,185.82C112.1,185.97 112.15,186.05 112.26,186.19C112.41,186.38 112.62,186.6 112.83,186.84C113.09,187.14 113.42,187.55 113.68,187.87C113.9,188.14 114.13,188.45 114.29,188.64C114.39,188.76 114.43,188.8 114.54,188.93C114.74,189.17 115.11,189.61 115.39,189.96C115.68,190.32 115.98,190.71 116.265,191.065C116.54,191.41 116.81,191.72 117.09,192.06C117.38,192.41 117.73,192.85 117.95,193.13C118.08,193.3 118.15,193.4 118.27,193.55C118.42,193.74 118.6,193.95 118.8,194.19C119.05,194.5 119.39,194.93 119.65,195.25C119.86,195.52 120.07,195.8 120.23,196C120.34,196.13 120.38,196.19 120.5,196.33C120.71,196.58 121.08,197.03 121.36,197.39C121.64,197.74 121.92,198.11 122.2,198.46C122.48,198.82 122.78,199.16 123.06,199.52C123.35,199.88 123.71,200.35 123.91,200.6C124.01,200.73 124.05,200.78 124.15,200.91C124.31,201.11 124.54,201.4 124.76,201.67C125.02,202 125.38,202.43 125.62,202.74C125.8,202.98 125.95,203.18 126.1,203.37C126.23,203.53 126.32,203.64 126.47,203.82C126.7,204.1 127.04,204.53 127.32,204.88C127.59,205.22 127.83,205.55 128.11,205.89499999999998C128.4,206.26 128.73,206.65 129.03,207.02C129.32,207.38 129.72,207.89 129.88,208.1C129.94,208.18 129.95,208.2 130.01,208.28C130.15,208.47 130.48,208.86 130.73,209.17C131,209.51 131.35,209.96 131.58,210.25C131.73,210.44 131.83,210.56 131.96,210.73C132.11,210.92 132.25,211.1 132.43,211.33C132.67,211.64 133.03,212.07 133.29,212.4C133.51,212.68 133.73,212.99 133.89,213.19C133.99,213.32 134.03,213.36 134.14,213.49C134.34,213.74 134.71,214.2 134.99,214.56C135.27,214.92 135.55,215.29 135.82999999999998,215.64999999999998C136.12,216.01 136.41,216.37 136.7,216.73C136.99,217.09 137.36,217.59 137.55,217.83C137.64,217.95 137.66,217.98 137.75,218.09C137.9,218.29 138.17,218.62 138.4,218.92C138.66,219.26 139.02,219.71 139.25,220.01C139.41,220.22 139.52,220.37 139.66,220.55C139.81,220.74 139.94,220.9 140.11,221.12C140.35,221.43 140.7,221.89 140.96,222.23C141.17,222.51 141.38,222.79 141.54,223C141.65,223.14 141.7,223.2 141.81,223.35C142.01,223.62 142.38,224.09 142.66,224.46C142.93,224.82 143.18,225.16 143.45999999999998,225.525C143.75,225.91 144.07,226.32 144.37,226.71C144.67,227.1 144.96,227.5 145.245,227.88C145.52,228.25 145.79,228.61 146.07,228.98C146.35,229.36 146.74,229.9 146.92,230.14C147,230.25 147.01,230.27 147.09,230.37C147.24,230.57 147.54,230.96 147.78,231.29C148.05,231.66 148.43,232.18 148.63,232.46C148.74,232.61 148.79,232.68 148.89,232.82C149.05,233.04 149.27,233.34 149.48,233.64C149.74,234 150.12,234.52 150.33,234.82C150.46,235.01 150.53,235.11 150.65,235.28C150.81,235.5 150.99,235.74 151.19,236.02C151.44,236.37 151.82,236.9 152.04,237.22C152.18,237.43 152.26,237.55 152.39,237.73C152.54,237.95 152.7,238.17 152.89,238.44C153.14,238.79 153.52,239.35 153.74,239.67C153.88,239.88 153.96,240 154.09,240.19C154.24,240.41 154.4,240.64 154.59,240.91C154.84,241.27 155.24,241.84 155.45,242.16C155.58,242.36 155.64,242.46 155.76,242.64C155.91,242.87 156.1,243.13 156.3,243.43C156.55,243.81 156.95,244.42 157.15,244.72C157.26,244.88 157.3,244.94 157.4,245.09C157.56,245.33 157.78,245.68 158,246.02C158.26,246.42 158.7,247.08 158.86,247.33C158.92,247.43 158.93,247.45 158.99,247.55C159.13,247.78 159.46,248.27 159.71,248.66C159.98,249.09 160.27,249.56 160.555,250.01C160.84,250.46 161.14,250.95 161.41,251.38C161.65,251.76 161.92,252.21 162.07,252.46C162.15,252.59 162.17,252.63 162.26,252.77C162.44,253.07 162.88,253.78 163.12,254.17C163.29,254.45 163.42,254.67 163.56,254.91C163.7,255.14 163.81,255.33 163.97,255.6C164.2,255.99 164.64,256.74 164.82,257.05C164.91,257.2 164.93,257.23 165.01,257.37C165.16,257.63 165.44,258.12 165.67,258.52C165.91,258.94 166.27,259.57 166.41,259.82C166.47,259.92 166.47,259.93 166.53,260.03C166.69,260.3 167.15,261.13 167.38,261.55C167.54,261.84 167.63,262.03 167.77,262.28C167.92,262.55 168.05,262.79 168.23,263.12C168.47,263.57 168.8,264.19 169.085,264.72C169.37,265.25 169.7,265.87 169.94,266.32C170.11,266.65 170.24,266.9 170.38,267.18C170.52,267.45 170.63,267.66 170.79,267.98C171.02,268.44 171.35,269.09 171.635,269.655C171.92,270.23 172.27,270.93 172.49,271.38C172.63,271.67 172.71,271.83 172.84,272.09C172.99,272.41 173.16,272.77 173.34,273.15C173.54,273.58 173.84,274.22 174,274.55C174.09,274.73 174.11,274.77 174.2,274.96C174.39,275.37 174.8,276.27 175.09,276.905C175.37,277.52 175.69,278.24 175.9,278.71C176.03,279.01 176.11,279.18 176.23,279.46C176.38,279.82 176.58,280.26 176.75,280.67C176.93,281.08 177.12,281.55 177.28,281.91C177.4,282.2 177.48,282.37 177.61,282.68C177.8,283.13 178.15,284.01 178.3,284.37C178.37,284.54 178.39,284.57 178.46,284.75C178.63,285.17 179.01,286.13 179.29500000000002,286.85C179.59,287.6 179.91,288.41 180.2,289.16999999999996C180.48,289.9 180.86,290.88 181.02,291.32C181.09,291.51 181.1,291.54 181.17,291.73C181.32,292.13 181.71,293.21 181.87,293.65C181.95,293.88 181.98,293.95 182.06,294.18C182.21,294.61 182.56,295.61 182.72,296.06C182.81,296.31 182.83,296.39 182.92,296.64C183.08,297.1 183.42,298.13 183.57,298.57C183.65,298.8 183.67,298.86 183.75,299.09C183.9,299.55 184.28,300.74 184.42,301.16C184.48,301.34 184.49,301.36 184.55,301.55C184.7,302.01 185.05,303.12 185.3,303.93C185.56,304.78 185.84,305.7 186.1,306.54999999999995C186.34,307.36 186.64,308.38 186.8,308.91C186.88,309.18 186.9,309.26 186.98,309.52C187.11,309.97 187.36,310.83 187.51,311.37C187.63,311.8 187.72,312.12 187.83,312.52C187.95,312.94 188.06,313.35 188.19,313.82C188.34,314.38 188.57,315.21 188.69,315.66C188.76,315.92 188.78,316 188.85,316.27C189,316.83 189.3,318.01 189.51,318.845C189.71,319.64 189.93,320.53 190.09,321.18C190.21,321.65 190.29,321.99 190.39,322.4C190.49,322.81 190.58,323.16 190.69,323.64C190.85,324.31 191.06,325.25 191.25,326.05999999999995C191.44,326.88 191.66,327.86 191.81,328.55C191.92,329.05 192,329.42 192.09,329.84C192.18,330.24 192.25,330.54 192.35,331C192.49,331.67 192.76,332.97 192.86,333.46C192.9,333.67 192.91,333.71 192.95,333.91C193.04,334.34 193.21,335.21 193.35,335.91C193.5,336.67 193.66,337.5 193.81,338.315C193.96,339.14 194.12,340 194.27,340.82C194.41,341.6 194.54,342.32 194.68,343.115C194.83,343.96 194.98,344.87 195.12,345.73C195.25,346.56 195.37,347.36 195.5,348.18C195.63,349 195.76,349.82 195.88,350.64C196,351.46 196.13,352.45 196.22,353.09C196.28,353.5 196.31,353.73 196.36,354.09C196.42,354.53 196.48,355 196.55,355.55C196.64,356.26 196.76,357.18 196.85,358C196.95,358.82 197.05,359.86 197.12,360.46C197.16,360.8 197.18,360.95 197.21,361.26C197.26,361.71 197.32,362.31 197.38,362.91C197.45,363.65 197.54,364.54 197.61,365.36C197.68,366.18 197.75,367 197.81,367.82C197.87,368.64 197.93,369.59 197.98,370.27C198.01,370.76 198.03,371.11 198.06,371.52C198.09,371.93 198.11,372.26 198.14,372.73C198.18,373.4 198.22,374.36 198.26,375.18C198.3,376 198.33,376.82 198.36,377.64C198.39,378.46 198.42,379.27 198.44,380.09C198.46,380.91 198.47,381.73 198.48,382.55C198.49,383.37 198.49,384.18 198.49,385C198.49,385.82 198.49,386.63 198.48,387.45C198.47,388.27 198.46,389.09 198.44,389.91C198.42,390.73 198.39,391.54 198.36,392.36C198.33,393.18 198.3,394 198.26,394.82C198.22,395.64 198.18,396.6 198.14,397.27C198.11,397.74 198.09,398.07 198.06,398.48C198.03,398.89 198.01,399.24 197.98,399.73C197.93,400.41 197.87,401.36 197.81,402.18C197.75,403 197.68,403.82 197.61,404.64C197.54,405.46 197.45,406.35 197.38,407.09C197.32,407.69 197.26,408.29 197.21,408.74C197.18,409.05 197.16,409.2 197.12,409.54C197.05,410.14 196.95,411.18 196.85,412C196.76,412.82 196.64,413.74 196.55,414.45C196.48,415 196.42,415.47 196.36,415.91C196.31,416.27 196.28,416.5 196.22,416.91C196.13,417.55 196,418.54 195.88,419.36C195.76,420.18 195.63,421 195.5,421.82C195.37,422.64 195.25,423.44 195.12,424.27C194.98,425.13 194.83,426.04 194.68,426.885C194.54,427.68 194.41,428.4 194.27,429.18C194.12,430 193.96,430.86 193.81,431.685C193.66,432.5 193.5,433.33 193.35,434.09C193.21,434.79 193.04,435.66 192.95,436.09C192.91,436.29 192.9,436.33 192.86,436.54C192.76,437.03 192.49,438.33 192.35,439C192.25,439.46 192.18,439.76 192.09,440.16C192,440.58 191.92,440.95 191.81,441.45C191.66,442.14 191.44,443.12 191.25,443.94000000000005C191.06,444.75 190.85,445.69 190.69,446.36C190.58,446.84 190.49,447.19 190.39,447.6C190.29,448.01 190.21,448.35 190.09,448.82C189.93,449.47 189.71,450.36 189.51,451.155C189.3,451.99 189,453.17 188.85,453.73C188.78,454 188.76,454.08 188.69,454.34C188.57,454.79 188.34,455.62 188.19,456.18C188.06,456.65 187.95,457.06 187.83,457.48C187.72,457.88 187.63,458.2 187.51,458.63C187.36,459.17 187.11,460.03 186.98,460.48C186.9,460.74 186.88,460.82 186.8,461.09C186.64,461.62 186.34,462.64 186.1,463.45000000000005C185.84,464.3 185.56,465.22 185.3,466.07C185.05,466.88 184.7,467.99 184.55,468.45C184.49,468.64 184.48,468.66 184.42,468.84C184.28,469.26 183.9,470.45 183.75,470.91C183.67,471.14 183.65,471.2 183.57,471.43C183.42,471.87 183.08,472.9 182.92,473.36C182.83,473.61 182.81,473.69 182.72,473.94C182.56,474.39 182.21,475.39 182.06,475.82C181.98,476.05 181.95,476.12 181.87,476.35C181.71,476.79 181.32,477.87 181.17,478.27C181.1,478.46 181.09,478.49 181.02,478.68C180.86,479.12 180.48,480.1 180.2,480.83000000000004C179.91,481.59 179.59,482.4 179.29500000000002,483.15C179.01,483.87 178.63,484.83 178.46,485.25C178.39,485.43 178.37,485.46 178.3,485.63C178.15,485.99 177.8,486.87 177.61,487.32C177.48,487.63 177.4,487.8 177.28,488.09C177.12,488.45 176.93,488.92 176.75,489.33C176.58,489.74 176.38,490.18 176.23,490.54C176.11,490.82 176.03,490.99 175.9,491.29C175.69,491.76 175.37,492.48 175.09,493.095C174.8,493.73 174.39,494.63 174.2,495.04C174.11,495.23 174.09,495.27 174,495.45C173.84,495.78 173.54,496.42 173.34,496.85C173.16,497.23 172.99,497.59 172.84,497.91C172.71,498.17 172.63,498.33 172.49,498.62C172.27,499.07 171.92,499.77 171.635,500.345C171.35,500.91 171.02,501.56 170.79,502.02C170.63,502.34 170.52,502.55 170.38,502.82C170.24,503.1 170.11,503.35 169.94,503.68C169.7,504.13 169.37,504.75 169.085,505.28C168.8,505.81 168.47,506.43 168.23,506.88C168.05,507.21 167.92,507.45 167.77,507.72C167.63,507.97 167.54,508.16 167.38,508.45C167.15,508.87 166.69,509.7 166.53,509.97C166.47,510.07 166.47,510.08 166.41,510.18C166.27,510.43 165.91,511.06 165.67,511.48C165.44,511.88 165.16,512.37 165.01,512.63C164.93,512.77 164.91,512.8 164.82,512.95C164.64,513.26 164.2,514.01 163.97,514.4C163.81,514.67 163.7,514.86 163.56,515.09C163.42,515.33 163.29,515.55 163.12,515.83C162.88,516.22 162.44,516.93 162.26,517.23C162.17,517.37 162.15,517.41 162.07,517.54C161.92,517.79 161.65,518.24 161.41,518.62C161.14,519.05 160.84,519.54 160.555,519.99C160.27,520.44 159.98,520.91 159.71,521.34C159.46,521.73 159.13,522.22 158.99,522.45C158.93,522.55 158.92,522.57 158.86,522.67C158.7,522.92 158.26,523.58 158,523.98C157.78,524.32 157.56,524.67 157.4,524.91C157.3,525.06 157.26,525.12 157.15,525.28C156.95,525.58 156.55,526.19 156.3,526.57C156.1,526.87 155.91,527.13 155.76,527.36C155.64,527.54 155.58,527.64 155.45,527.84C155.24,528.16 154.84,528.73 154.59,529.09C154.4,529.36 154.24,529.59 154.09,529.81C153.96,530 153.88,530.12 153.74,530.33C153.52,530.65 153.14,531.21 152.89,531.56C152.7,531.83 152.54,532.05 152.39,532.27C152.26,532.45 152.18,532.57 152.04,532.78C151.82,533.1 151.44,533.63 151.19,533.98C150.99,534.26 150.81,534.5 150.65,534.72C150.53,534.89 150.46,534.99 150.33,535.18C150.12,535.48 149.74,536 149.48,536.36C149.27,536.66 149.05,536.96 148.89,537.18C148.79,537.32 148.74,537.39 148.63,537.54C148.43,537.82 148.05,538.34 147.78,538.71C147.54,539.04 147.24,539.43 147.09,539.63C147.01,539.73 147,539.75 146.92,539.86C146.74,540.1 146.35,540.64 146.07,541.02C145.79,541.39 145.52,541.75 145.245,542.12C144.96,542.5 144.67,542.9 144.37,543.29C144.07,543.68 143.75,544.09 143.45999999999998,544.4749999999999C143.18,544.84 142.93,545.18 142.66,545.54C142.38,545.91 142.01,546.38 141.81,546.65C141.7,546.8 141.65,546.86 141.54,547C141.38,547.21 141.17,547.49 140.96,547.77C140.7,548.11 140.35,548.57 140.11,548.88C139.94,549.1 139.81,549.26 139.66,549.45C139.52,549.63 139.41,549.78 139.25,549.99C139.02,550.29 138.66,550.74 138.4,551.08C138.17,551.38 137.9,551.71 137.75,551.91C137.66,552.02 137.64,552.05 137.55,552.17C137.36,552.41 136.99,552.91 136.7,553.27C136.41,553.63 136.12,553.99 135.82999999999998,554.35C135.55,554.71 135.27,555.08 134.99,555.44C134.71,555.8 134.34,556.26 134.14,556.51C134.03,556.64 133.99,556.68 133.89,556.81C133.73,557.01 133.51,557.32 133.29,557.6C133.03,557.93 132.67,558.36 132.43,558.67C132.25,558.9 132.11,559.08 131.96,559.27C131.83,559.44 131.73,559.56 131.58,559.75C131.35,560.04 131,560.49 130.73,560.83C130.48,561.14 130.15,561.53 130.01,561.72C129.95,561.8 129.94,561.82 129.88,561.9C129.72,562.11 129.32,562.62 129.03,562.98C128.73,563.35 128.4,563.74 128.11,564.105C127.83,564.45 127.59,564.78 127.32,565.12C127.04,565.47 126.7,565.9 126.47,566.18C126.32,566.36 126.23,566.47 126.1,566.63C125.95,566.82 125.8,567.02 125.62,567.26C125.38,567.57 125.02,568 124.76,568.33C124.54,568.6 124.31,568.89 124.15,569.09C124.05,569.22 124.01,569.27 123.91,569.4C123.71,569.65 123.34,570.12 123.06,570.48C122.78,570.83 122.49,571.18 122.21,571.53C121.93,571.89 121.65,572.25 121.36,572.61C121.08,572.97 120.71,573.42 120.5,573.67C120.38,573.81 120.34,573.87 120.23,574C120.07,574.2 119.86,574.48 119.65,574.75C119.39,575.07 119.05,575.5 118.8,575.81C118.6,576.05 118.42,576.26 118.27,576.45C118.15,576.6 118.08,576.7 117.95,576.87C117.73,577.14 117.37,577.58 117.09,577.93C116.81,578.27 116.54,578.59 116.265,578.935C115.98,579.29 115.68,579.68 115.39,580.04C115.11,580.39 114.74,580.83 114.54,581.07C114.43,581.2 114.39,581.24 114.29,581.36C114.13,581.55 113.9,581.86 113.68,582.13C113.42,582.45 113.09,582.85 112.83,583.15C112.62,583.39 112.41,583.62 112.26,583.81C112.15,583.95 112.1,584.03 111.98,584.18C111.78,584.44 111.42,584.87 111.13,585.21C110.84,585.55 110.53,585.89 110.24000000000001,586.23C109.96,586.56 109.7,586.89 109.42,587.21C109.14,587.54 108.82,587.91 108.57,588.18C108.38,588.39 108.21,588.55 108.06,588.72C107.93,588.87 107.86,588.97 107.72,589.14C107.5,589.4 107.16,589.8 106.87,590.11C106.59,590.42 106.19,590.83 106.01,591.01C105.93,591.09 105.91,591.1 105.84,591.18C105.69,591.35 105.4,591.71 105.16,591.98C104.9,592.28 104.59,592.6 104.31,592.89C104.04,593.17 103.78,593.4 103.505,593.69C103.21,594 102.9,594.38 102.6,594.69C102.32,594.99 102.02,595.28 101.75,595.53C101.53,595.74 101.27,595.93 101.12,596.09C101.02,596.19 101,596.25 100.9,596.36C100.71,596.58 100.34,596.98 100.05,597.27C99.77,597.54 99.47,597.82 99.2,598.04C98.97,598.23 98.7,598.39 98.55,598.54C98.45,598.64 98.44,598.71 98.34,598.83C98.16,599.06 97.78,599.48 97.49,599.76C97.21,600.03 96.93,600.28 96.64,600.49C96.37,600.68 95.95,600.78 95.82,600.99C95.72,601.16 95.8,601.32 95.79,601.57C95.77,602.02 95.54,602.98 95.725,603.485C95.88,603.91 96.36,604.09 96.64,604.47C96.95,604.89 97.17,605.5 97.47,605.9200000000001C97.74,606.29 98.06,606.55 98.34,606.9C98.64,607.28 99.04,607.88 99.2,608.13C99.27,608.23 99.26,608.26 99.33,608.36C99.47,608.55 99.81,608.87 100.05,609.17C100.33,609.51 100.68,609.97 100.9,610.28C101.05,610.49 101.12,610.64 101.25,610.81C101.4,611 101.57,611.14 101.75,611.36C102,611.65 102.34,612.08 102.6,612.42C102.83,612.72 103.06,613.07 103.22,613.27C103.31,613.39 103.36,613.41 103.46,613.53C103.66,613.76 104.03,614.2 104.31,614.55C104.6,614.92 104.89,615.33 105.185,615.69C105.46,616.03 105.73,616.33 106.01,616.66C106.3,617.01 106.66,617.45 106.87,617.73C107.01,617.91 107.07,618.02 107.19,618.18C107.34,618.37 107.53,618.55 107.72,618.78C107.97,619.08 108.31,619.49 108.57,619.82C108.8,620.1 109.03,620.44 109.19,620.63C109.28,620.74 109.32,620.77 109.42,620.89C109.62,621.12 109.99,621.57 110.28,621.92C110.57,622.29 110.87,622.69 111.16,623.05C111.44,623.39 111.71,623.69 111.98,624.03C112.26,624.38 112.61,624.82 112.83,625.1C112.97,625.28 113.04,625.38 113.16,625.54C113.31,625.73 113.49,625.92 113.68,626.16C113.93,626.47 114.28,626.89 114.54,627.22C114.76,627.5 114.97,627.79 115.13,627.99C115.23,628.12 115.28,628.17 115.39,628.3C115.59,628.55 115.96,629 116.24,629.36C116.52,629.72 116.8,630.09 117.08500000000001,630.455C117.37,630.81 117.67,631.16 117.95,631.52C118.24,631.88 118.62,632.39 118.8,632.63C118.89,632.75 118.91,632.79 119,632.9C119.15,633.1 119.42,633.42 119.65,633.71C119.92,634.05 120.27,634.52 120.5,634.82C120.66,635.03 120.76,635.18 120.9,635.36C121.05,635.55 121.18,635.71 121.36,635.93C121.6,636.24 121.96,636.7 122.21,637.04C122.42,637.32 122.62,637.6 122.78,637.81C122.89,637.95 122.94,638.02 123.06,638.17C123.27,638.44 123.64,638.94 123.91,639.3C124.16,639.63 124.47,640.08 124.62,640.27C124.68,640.35 124.69,640.36 124.76,640.45C124.93,640.67 125.34,641.21 125.62,641.59C125.9,641.97 126.17,642.36 126.455,642.74C126.74,643.13 127.03,643.51 127.32,643.91C127.61,644.31 127.91,644.74 128.2,645.135C128.48,645.52 128.75,645.88 129.03,646.27C129.33,646.68 129.64,647.13 129.935,647.5450000000001C130.21,647.93 130.46,648.28 130.73,648.66C131.01,649.05 131.41,649.63 131.58,649.87C131.65,649.97 131.66,649.98 131.73,650.08C131.88,650.29 132.18,650.73 132.43,651.08C132.7,651.47 133.12,652.06 133.29,652.31C133.36,652.42 133.38,652.44 133.45,652.54C133.6,652.75 133.9,653.18 134.14,653.53C134.41,653.92 134.82,654.52 134.99,654.77C135.06,654.87 135.07,654.89 135.14,654.99C135.29,655.21 135.59,655.65 135.84,656.01C136.11,656.41 136.54,657.04 136.7,657.27C136.76,657.36 136.76,657.37 136.82,657.45C136.96,657.66 137.3,658.14 137.55,658.52C137.83,658.94 138.15,659.41 138.44,659.8399999999999C138.72,660.25 138.97,660.63 139.25,661.04C139.54,661.46 139.84,661.9 140.125,662.3299999999999C140.41,662.75 140.68,663.16 140.96,663.57C141.24,663.99 141.52,664.4 141.805,664.8199999999999C142.09,665.24 142.38,665.68 142.66,666.1C142.94,666.51 143.21,666.9 143.485,667.31C143.77,667.74 144.08,668.19 144.37,668.61C144.64,669.01 144.9,669.38 145.175,669.7850000000001C145.47,670.21 145.78,670.67 146.07,671.09C146.34,671.49 146.6,671.85 146.875,672.2449999999999C147.17,672.66 147.48,673.12 147.78,673.53C148.06,673.92 148.32,674.28 148.6,674.6700000000001C148.89,675.07 149.19,675.5 149.48,675.9C149.77,676.29 150.06,676.68 150.35000000000002,677.06C150.63,677.43 150.91,677.8 151.19,678.17C151.47,678.54 151.85,679.03 152.04,679.27C152.14,679.39 152.17,679.43 152.26,679.54C152.42,679.74 152.66,680.06 152.89,680.34C153.15,680.67 153.49,681.08 153.74,681.38C153.94,681.61 154.12,681.81 154.27,681.99C154.39,682.13 154.46,682.22 154.59,682.37C154.81,682.62 155.16,683.02 155.45,683.34C155.73,683.65 156.12,684.07 156.3,684.26C156.38,684.35 156.41,684.37 156.49,684.45C156.64,684.61 156.91,684.91 157.15,685.15C157.41,685.42 157.71,685.72 158,685.99C158.28,686.26 158.69,686.62 158.86,686.77C158.93,686.83 158.94,686.84 159.01,686.9C159.16,687.03 159.46,687.32 159.71,687.53C159.98,687.76 160.27,688.01 160.56,688.24C160.84,688.47 161.14,688.7 161.41,688.9C161.64,689.07 161.91,689.25 162.06,689.36C162.15,689.42 162.17,689.45 162.26,689.51C162.45,689.64 162.83,689.9 163.12,690.09C163.4,690.28 163.68,690.46 163.97,690.63C164.25,690.8 164.54,690.96 164.82,691.12C165.1,691.28 165.42,691.45 165.67,691.57C165.86,691.67 166.03,691.74 166.18,691.81C166.31,691.87 166.39,691.91 166.53,691.98C166.75,692.08 167.1,692.25 167.38,692.37C167.66,692.49 167.95,692.61 168.23,692.72C168.51,692.83 168.79,692.94 169.08,693.04C169.36,693.14 169.65,693.24 169.94,693.33C170.22,693.42 170.51,693.51 170.79,693.59C171.07,693.67 171.36,693.75 171.64,693.82C171.92,693.89 172.21,693.95 172.49,694.02C172.77,694.08 173.13,694.17 173.34,694.21C173.47,694.24 173.53,694.25 173.65,694.27C173.81,694.3 174,694.33 174.2,694.37C174.45,694.42 174.77,694.47 175.05,694.52C175.33,694.57 175.62,694.61 175.9,694.65C176.18,694.69 176.47,694.73 176.75,694.76C177.04,694.79 177.32,694.82 177.61,694.85C177.89,694.88 178.18,694.91 178.46,694.93C178.74,694.95 179.03,694.97 179.31,694.99C179.59,695.01 179.88,695.03 180.16,695.04C180.45,695.06 180.73,695.07 181.02,695.08C181.3,695.09 181.59,695.1 181.87,695.11C182.15,695.12 182.44,695.12 182.72,695.12C183,695.12 183.29,695.13 183.57,695.13C183.85,695.13 184.14,695.12 184.42,695.12C184.71,695.12 184.99,695.12 185.28,695.11C185.56,695.1 185.85,695.09 186.13,695.08C186.41,695.07 186.7,695.06 186.98,695.05C187.26,695.04 187.55,695.02 187.83,695.01C188.12,695 188.4,694.99 188.69,694.97C188.97,694.96 189.26,694.94 189.54,694.92C189.82,694.9 190.11,694.88 190.39,694.86C190.67,694.84 190.96,694.82 191.24,694.8C191.52,694.78 191.81,694.75 192.09,694.73C192.38,694.71 192.66,694.68 192.95,694.66C193.23,694.64 193.52,694.61 193.8,694.59C194.08,694.56 194.37,694.54 194.65,694.51C194.93,694.48 195.22,694.45 195.5,694.42C195.79,694.39 196.09,694.37 196.36,694.34C196.59,694.32 196.87,694.29 197.02,694.27C197.1,694.26 197.12,694.26 197.21,694.25C197.39,694.23 197.78,694.19 198.06,694.16C198.34,694.13 198.63,694.09 198.91,694.06C199.2,694.03 199.48,694 199.77,693.97C200.05,693.94 200.34,693.9 200.62,693.87C200.9,693.84 201.19,693.81 201.47,693.78C201.75,693.75 202.04,693.71 202.32,693.68C202.6,693.65 202.89,693.61 203.17,693.58C203.46,693.55 203.74,693.51 204.03,693.48C204.31,693.45 204.6,693.41 204.88,693.38C205.16,693.35 205.45,693.31 205.73,693.28C206.01,693.25 206.3,693.21 206.58,693.18C206.87,693.15 207.15,693.11 207.44,693.08C207.72,693.05 208.01,693.02 208.29,692.99C208.57,692.96 208.86,692.92 209.14,692.89C209.42,692.86 209.71,692.83 209.99,692.8C210.27,692.77 210.56,692.73 210.84,692.7C211.13,692.67 211.41,692.64 211.7,692.61C211.98,692.58 212.27,692.55 212.55,692.52C212.83,692.49 213.12,692.47 213.4,692.44C213.68,692.41 213.97,692.38 214.25,692.35C214.54,692.32 214.82,692.3 215.11,692.27C215.39,692.25 215.68,692.22 215.96,692.2C216.24,692.17 216.53,692.15 216.81,692.12C217.09,692.1 217.38,692.07 217.66,692.05C217.95,692.03 218.23,692.01 218.52,691.99C218.8,691.97 219.09,691.95 219.37,691.93C219.65,691.91 219.93,691.89 220.22,691.87C220.51,691.85 220.82,691.83 221.105,691.81C221.38,691.79 221.64,691.78 221.92,691.77C222.2,691.75 222.49,691.74 222.78,691.72C223.06,691.71 223.35,691.69 223.63,691.68C223.91,691.67 224.2,691.66 224.48,691.65C224.76,691.64 225.05,691.63 225.33,691.62C225.62,691.61 225.9,691.61 226.19,691.6C226.47,691.6 226.76,691.59 227.04,691.59C227.32,691.59 227.61,691.58 227.89,691.58C228.17,691.58 228.46,691.57 228.74,691.57C229.03,691.57 229.31,691.58 229.6,691.58C229.88,691.58 230.17,691.59 230.45,691.59C230.73,691.59 231.02,691.59 231.3,691.6C231.58,691.61 231.87,691.62 232.15,691.63C232.43,691.64 232.72,691.65 233,691.66C233.29,691.67 233.57,691.68 233.86,691.7C234.14,691.71 234.42,691.73 234.71,691.75C235.01,691.77 235.33,691.79 235.62,691.805C235.89,691.82 236.14,691.84 236.41,691.86C236.69,691.88 236.98,691.9 237.27,691.93C237.55,691.95 237.84,691.98 238.12,692.01C238.4,692.04 238.69,692.07 238.97,692.1C239.25,692.13 239.54,692.17 239.82,692.2C240.1,692.23 240.39,692.26 240.67,692.3C240.96,692.34 241.24,692.38 241.53,692.42C241.81,692.46 242.1,692.5 242.38,692.54C242.66,692.58 242.95,692.62 243.23,692.67C243.51,692.72 243.8,692.77 244.08,692.82Q244.37,692.87 244.94,692.97" style="stroke-miterlimit: 1; vector-effect: non-scaling-stroke; fill: none; stroke: rgb(178, 10, 28); stroke-opacity: 1; stroke-width: 2px;"/><path class="closedline" d="M38.68,623.11C38.68,623.11 38.67,623.1 38.67,623.09C38.67,623.08 38.68,623.05 38.68,623.05C38.69,623.05 38.7,623.08 38.7,623.09C38.7,623.1 38.69,623.11 38.68,623.11Z" style="stroke-miterlimit: 1; vector-effect: non-scaling-stroke; fill: none; stroke: rgb(178, 10, 28); stroke-opacity: 1; stroke-width: 2px;"/></g></g></g></g><g class="scatterlayer mlayer"><g class="trace scatter trace7d973e" style="stroke-miterlimit: 2; opacity: 1;"><g class="fills"/><g class="errorbars"/><g class="lines"><path class="js-line" d="M9.97,385" style="vector-effect: non-scaling-stroke; fill: none; stroke: rgb(178, 10, 28); stroke-opacity: 1; stroke-width: 2px; opacity: 1;"/></g><g class="points"/><g class="text"/></g><g class="trace scatter trace3134b8" style="stroke-miterlimit: 2; opacity: 1;"><g class="fills"/><g class="errorbars"/><g class="lines"/><g class="points"><path class="point" transform="translate(94.82,168.1)" d="M0,1.7l1.7,1.7l1.7,-1.7l-1.7,-1.7l1.7,-1.7l-1.7,-1.7l-1.7,1.7l-1.7,-1.7l-1.7,1.7l1.7,1.7l-1.7,1.7l1.7,1.7Z" style="opacity: 1; stroke-width: 0px; fill: rgb(255, 0, 0); fill-opacity: 1;"/><path class="point" transform="translate(94.82,601.9)" d="M0,1.7l1.7,1.7l1.7,-1.7l-1.7,-1.7l1.7,-1.7l-1.7,-1.7l-1.7,1.7l-1.7,-1.7l-1.7,1.7l1.7,1.7l-1.7,1.7l1.7,1.7Z" style="opacity: 1; stroke-width: 0px; fill: rgb(255, 0, 0); fill-opacity: 1;"/><path class="point" transform="translate(239.52,162.87)" d="M0,1.7l1.7,1.7l1.7,-1.7l-1.7,-1.7l1.7,-1.7l-1.7,-1.7l-1.7,1.7l-1.7,-1.7l-1.7,1.7l1.7,1.7l-1.7,1.7l1.7,1.7Z" style="opacity: 1; stroke-width: 0px; fill: rgb(255, 0, 0); fill-opacity: 1;"/><path class="point" transform="translate(241.44,615.63)" d="M0,1.7l1.7,1.7l1.7,-1.7l-1.7,-1.7l1.7,-1.7l-1.7,-1.7l-1.7,1.7l-1.7,-1.7l-1.7,1.7l1.7,1.7l-1.7,1.7l1.7,1.7Z" style="opacity: 1; stroke-width: 0px; fill: rgb(255, 0, 0); fill-opacity: 1;"/></g><g class="text"/></g><g class="trace scatter tracef74b3f" style="stroke-miterlimit: 2; opacity: 1;"><g class="fills"/><g class="errorbars"/><g class="lines"><path class="js-line" d="M60.32,385L62,312.36L63.68,276.04L67.03,239.72L73.75,203.4L83.82,167.08L65.02,151.09L65.02,127.85L90.53,145.28L150.95,69.01L202.64,74.82L202.64,84.99L172.77,96.25L110.67,167.08L130.81,182.33L140.88,196.86L149.94,211.39L169.08,233.18L181.16,245.17L192.24,269.14L199.62,293.47L204.66,339.24L206.67,385L204.66,430.76L199.62,476.53L192.24,500.86L181.16,524.83L149.94,558.61L140.88,573.14L130.81,587.67L110.67,602.92L172.77,673.75L202.64,685.01L202.64,695.18L150.95,700.99L90.53,624.72L65.02,642.15L65.02,618.91L83.82,602.92L67.03,530.28L63.68,493.96L62,457.64L60.32,385" style="vector-effect: non-scaling-stroke; fill: none; stroke: rgb(176, 196, 222); stroke-opacity: 1; stroke-width: 2px; opacity: 1;"/></g><g class="points"/><g class="text"/></g><g class="trace scatter trace0544ff" style="stroke-miterlimit: 2; opacity: 1;"><g class="fills"/><g class="errorbars"/><g class="lines"><path class="js-line" d="M65.02,151.09L65.02,127.85" style="vector-effect: non-scaling-stroke; fill: none; stroke: rgb(0, 77, 64); stroke-opacity: 1; stroke-width: 2px; opacity: 1;"/></g><g class="points"/><g class="text"/></g><g class="trace scatter traced8cc9a" style="stroke-miterlimit: 2; opacity: 1;"><g class="fills"/><g class="errorbars"/><g class="lines"><path class="js-line" d="M202.64,74.82L202.64,84.99" style="vector-effect: non-scaling-stroke; fill: none; stroke: rgb(30, 136, 229); stroke-opacity: 1; stroke-width: 2px; opacity: 1;"/></g><g class="points"/><g class="text"/></g><g class="trace scatter trace2a6913" style="stroke-miterlimit: 2; opacity: 0.5;"><g class="fills"><g><path class="js-fill" d="M38.16,111.87L38.84,111.87L38.84,177.25L38.16,177.25L38.16,111.87Z" style="fill: rgb(255, 0, 0); fill-opacity: 1; stroke-width: 0;"/></g></g><g class="errorbars"/><g class="lines"><path class="js-line" d="M38.16,111.87L38.84,111.87L38.84,177.25L38.16,177.25L38.16,111.87" style="vector-effect: non-scaling-stroke; fill: none; stroke: rgb(128, 0, 0); stroke-opacity: 1; stroke-width: 2px; opacity: 1;"/></g><g class="points"/><g class="text"/></g><g class="trace scatter tracebb6baf" style="stroke-miterlimit: 2; opacity: 0.5;"><g class="fills"><g><path class="js-fill" d="M38.16,177.25L38.84,177.25L38.84,235.36L38.16,235.36L38.16,177.25Z" style="fill: rgb(255, 0, 0); fill-opacity: 1; stroke-width: 0;"/></g></g><g class="errorbars"/><g class="lines"><path class="js-line" d="M38.16,177.25L38.84,177.25L38.84,235.36L38.16,235.36L38.16,177.25" style="vector-effect: non-scaling-stroke; fill: none; stroke: rgb(128, 0, 0); stroke-opacity: 1; stroke-width: 2px; opacity: 1;"/></g><g class="points"/><g class="text"/></g><g class="trace scatter trace93f8ea" style="stroke-miterlimit: 2; opacity: 0.5;"><g class="fills"><g><path class="js-fill" d="M63,25.42L101.27,25.42L101.27,94.43L63,94.43L63,25.42Z" style="fill: rgb(255, 0, 0); fill-opacity: 1; stroke-width: 0;"/></g></g><g class="errorbars"/><g class="lines"><path class="js-line" d="M63,25.42L101.27,25.42L101.27,94.43L63,94.43L63,25.42" style="vector-effect: non-scaling-stroke; fill: none; stroke: rgb(128, 0, 0); stroke-opacity: 1; stroke-width: 2px; opacity: 1;"/></g><g class="points"/><g class="text"/></g><g class="trace scatter trace749538" style="stroke-miterlimit: 2; opacity: 0.5;"><g class="fills"><g><path class="js-fill" d="M117.38,25.42L187.2,25.42L187.2,50.85L117.38,50.85L117.38,25.42Z" style="fill: rgb(255, 0, 0); fill-opacity: 1; stroke-width: 0;"/></g></g><g class="errorbars"/><g class="lines"><path class="js-line" d="M117.38,25.42L187.2,25.42L187.2,50.85L117.38,50.85L117.38,25.42" style="vector-effect: non-scaling-stroke; fill: none; stroke: rgb(128, 0, 0); stroke-opacity: 1; stroke-width: 2px; opacity: 1;"/></g><g class="points"/><g class="text"/></g><g class="trace scatter traceb81353" style="stroke-miterlimit: 2; opacity: 0.5;"><g class="fills"><g><path class="js-fill" d="M203.98,25.42L253.66,25.42L253.66,50.85L203.98,50.85L203.98,25.42Z" style="fill: rgb(255, 0, 0); fill-opacity: 1; stroke-width: 0;"/></g></g><g class="errorbars"/><g class="lines"><path class="js-line" d="M203.98,25.42L253.66,25.42L253.66,50.85L203.98,50.85L203.98,25.42" style="vector-effect: non-scaling-stroke; fill: none; stroke: rgb(128, 0, 0); stroke-opacity: 1; stroke-width: 2px; opacity: 1;"/></g><g class="points"/><g class="text"/></g><g class="trace scatter trace872f3b" style="stroke-miterlimit: 2; opacity: 0.5;"><g class="fills"><g><path class="js-fill" d="M230.84,125.67L252.32,125.67L252.32,170.71L230.84,170.71L230.84,125.67Z" style="fill: rgb(255, 0, 0); fill-opacity: 1; stroke-width: 0;"/></g></g><g class="errorbars"/><g class="lines"><path class="js-line" d="M230.84,125.67L252.32,125.67L252.32,170.71L230.84,170.71L230.84,125.67" style="vector-effect: non-scaling-stroke; fill: none; stroke: rgb(128, 0, 0); stroke-opacity: 1; stroke-width: 2px; opacity: 1;"/></g><g class="points"/><g class="text"/></g><g class="trace scatter trace9cbd26" style="stroke-miterlimit: 2; opacity: 0.5;"><g class="fills"><g><path class="js-fill" d="M244.94,281.85L302,281.85L302,329.07L244.94,329.07L244.94,281.85Z" style="fill: rgb(255, 0, 0); fill-opacity: 1; stroke-width: 0;"/></g></g><g class="errorbars"/><g class="lines"><path class="js-line" d="M244.94,281.85L302,281.85L302,329.07L244.94,329.07L244.94,281.85" style="vector-effect: non-scaling-stroke; fill: none; stroke: rgb(128, 0, 0); stroke-opacity: 1; stroke-width: 2px; opacity: 1;"/></g><g class="points"/><g class="text"/></g><g class="trace scatter trace740844" style="stroke-miterlimit: 2; opacity: 0.5;"><g class="fills"><g><path class="js-fill" d="M9.97,385L9.97,385Z" style="fill: rgb(255, 0, 0); fill-opacity: 1; stroke-width: 0;"/></g></g><g class="errorbars"/><g class="lines"><path class="js-line" d="M9.97,385L9.97,385" style="vector-effect: non-scaling-stroke; fill: none; stroke: rgb(128, 0, 0); stroke-opacity: 1; stroke-width: 2px; opacity: 1;"/></g><g class="points"/><g class="text"/></g><g class="trace scatter trace76ab34" style="stroke-miterlimit: 2; opacity: 1;"><g class="fills"><g><path class="js-fill" d="M38.16,130.75L38.84,130.75L38.84,167.08L38.16,167.08L38.16,130.75Z" style="fill: rgb(128, 128, 128); fill-opacity: 1; stroke-width: 0;"/></g></g><g class="errorbars"/><g class="lines"><path class="js-line" d="M38.16,130.75L38.84,130.75L38.84,167.08L38.16,167.08L38.16,130.75" style="vector-effect: non-scaling-stroke; fill: none; stroke: rgb(0, 0, 0); stroke-opacity: 1; stroke-width: 2px; opacity: 1;"/></g><g class="points"/><g class="text"/></g><g class="trace scatter tracececa95" style="stroke-miterlimit: 2; opacity: 1;"><g class="fills"><g><path class="js-fill" d="M38.16,602.92L38.84,639.25L38.16,602.92Z" style="fill: rgb(128, 128, 128); fill-opacity: 1; stroke-width: 0;"/></g></g><g class="errorbars"/><g class="lines"><path class="js-line" d="M38.16,602.92L38.84,639.25L38.16,602.92" style="vector-effect: non-scaling-stroke; fill: none; stroke: rgb(0, 0, 0); stroke-opacity: 1; stroke-width: 2px; opacity: 1;"/></g><g class="points"/><g class="text"/></g><g class="trace scatter trace031cc9" style="stroke-miterlimit: 2; opacity: 1;"><g class="fills"><g><path class="js-fill" d="M38.16,182.33L38.84,182.33L38.84,219.38L38.16,219.38L38.16,182.33Z" style="fill: rgb(128, 128, 128); fill-opacity: 1; stroke-width: 0;"/></g></g><g class="errorbars"/><g class="lines"><path class="js-line" d="M38.16,182.33L38.84,182.33L38.84,219.38L38.16,219.38L38.16,182.33" style="vector-effect: non-scaling-stroke; fill: none; stroke: rgb(0, 0, 0); stroke-opacity: 1; stroke-width: 2px; opacity: 1;"/></g><g class="points"/><g class="text"/></g><g class="trace scatter trace11f8df" style="stroke-miterlimit: 2; opacity: 1;"><g class="fills"><g><path class="js-fill" d="M38.16,550.62L38.84,587.67L38.16,550.62Z" style="fill: rgb(128, 128, 128); fill-opacity: 1; stroke-width: 0;"/></g></g><g class="errorbars"/><g class="lines"><path class="js-line" d="M38.16,550.62L38.84,587.67L38.16,550.62" style="vector-effect: non-scaling-stroke; fill: none; stroke: rgb(0, 0, 0); stroke-opacity: 1; stroke-width: 2px; opacity: 1;"/></g><g class="points"/><g class="text"/></g><g class="trace scatter tracee25b9d" style="stroke-miterlimit: 2; opacity: 1;"><g class="fills"><g><path class="js-fill" d="M74.42,59.93L89.86,59.93L89.86,83.65L74.42,83.65L74.42,59.93Z" style="fill: rgb(128, 128, 128); fill-opacity: 1; stroke-width: 0;"/></g></g><g class="errorbars"/><g class="lines"><path class="js-line" d="M74.42,59.93L89.86,59.93L89.86,83.65L74.42,83.65L74.42,59.93" style="vector-effect: non-scaling-stroke; fill: none; stroke: rgb(0, 0, 0); stroke-opacity: 1; stroke-width: 2px; opacity: 1;"/></g><g class="points"/><g class="text"/></g><g class="trace scatter trace7a4867" style="stroke-miterlimit: 2; opacity: 1;"><g class="fills"><g><path class="js-fill" d="M74.42,686.35L89.86,686.35L89.86,710.07L74.42,710.07L74.42,686.35Z" style="fill: rgb(128, 128, 128); fill-opacity: 1; stroke-width: 0;"/></g></g><g class="errorbars"/><g class="lines"><path class="js-line" d="M74.42,686.35L89.86,686.35L89.86,710.07L74.42,710.07L74.42,686.35" style="vector-effect: non-scaling-stroke; fill: none; stroke: rgb(0, 0, 0); stroke-opacity: 1; stroke-width: 2px; opacity: 1;"/></g><g class="points"/><g class="text"/></g><g class="trace scatter traceb80242" style="stroke-miterlimit: 2; opacity: 1;"><g class="fills"><g><path class="js-fill" d="M137.52,32.69L150.95,32.69L150.95,50.85L137.52,50.85L137.52,32.69Z" style="fill: rgb(128, 128, 128); fill-opacity: 1; stroke-width: 0;"/></g></g><g class="errorbars"/><g class="lines"><path class="js-line" d="M137.52,32.69L150.95,32.69L150.95,50.85L137.52,50.85L137.52,32.69" style="vector-effect: non-scaling-stroke; fill: none; stroke: rgb(0, 0, 0); stroke-opacity: 1; stroke-width: 2px; opacity: 1;"/></g><g class="points"/><g class="text"/></g><g class="trace scatter trace6638fe" style="stroke-miterlimit: 2; opacity: 1;"><g class="fills"><g><path class="js-fill" d="M137.52,719.15L150.95,719.15L150.95,737.31L137.52,737.31L137.52,719.15Z" style="fill: rgb(128, 128, 128); fill-opacity: 1; stroke-width: 0;"/></g></g><g class="errorbars"/><g class="lines"><path class="js-line" d="M137.52,719.15L150.95,719.15L150.95,737.31L137.52,737.31L137.52,719.15" style="vector-effect: non-scaling-stroke; fill: none; stroke: rgb(0, 0, 0); stroke-opacity: 1; stroke-width: 2px; opacity: 1;"/></g><g class="points"/><g class="text"/></g><g class="trace scatter trace24c850" style="stroke-miterlimit: 2; opacity: 1;"><g class="fills"><g><path class="js-fill" d="M231.8,27.6L245.72,27.6L245.72,48.67L231.8,48.67L231.8,27.6Z" style="fill: rgb(128, 128, 128); fill-opacity: 1; stroke-width: 0;"/></g></g><g class="errorbars"/><g class="lines"><path class="js-line" d="M231.8,27.6L245.72,27.6L245.72,48.67L231.8,48.67L231.8,27.6" style="vector-effect: non-scaling-stroke; fill: none; stroke: rgb(0, 0, 0); stroke-opacity: 1; stroke-width: 2px; opacity: 1;"/></g><g class="points"/><g class="text"/></g><g class="trace scatter trace5f017e" style="stroke-miterlimit: 2; opacity: 1;"><g class="fills"><g><path class="js-fill" d="M231.8,721.33L245.72,721.33L245.72,742.4L231.8,742.4L231.8,721.33Z" style="fill: rgb(128, 128, 128); fill-opacity: 1; stroke-width: 0;"/></g></g><g class="errorbars"/><g class="lines"><path class="js-line" d="M231.8,721.33L245.72,721.33L245.72,742.4L231.8,742.4L231.8,721.33" style="vector-effect: non-scaling-stroke; fill: none; stroke: rgb(0, 0, 0); stroke-opacity: 1; stroke-width: 2px; opacity: 1;"/></g><g class="points"/><g class="text"/></g><g class="trace scatter trace0cef68" style="stroke-miterlimit: 2; opacity: 1;"><g class="fills"><g><path class="js-fill" d="M234.19,141.65L243.59,141.65L243.59,168.53L234.19,168.53L234.19,141.65Z" style="fill: rgb(128, 128, 128); fill-opacity: 1; stroke-width: 0;"/></g></g><g class="errorbars"/><g class="lines"><path class="js-line" d="M234.19,141.65L243.59,141.65L243.59,168.53L234.19,168.53L234.19,141.65" style="vector-effect: non-scaling-stroke; fill: none; stroke: rgb(0, 0, 0); stroke-opacity: 1; stroke-width: 2px; opacity: 1;"/></g><g class="points"/><g class="text"/></g><g class="trace scatter tracef8222a" style="stroke-miterlimit: 2; opacity: 1;"><g class="fills"><g><path class="js-fill" d="M234.19,601.47L243.59,601.47L243.59,628.35L234.19,628.35L234.19,601.47Z" style="fill: rgb(128, 128, 128); fill-opacity: 1; stroke-width: 0;"/></g></g><g class="errorbars"/><g class="lines"><path class="js-line" d="M234.19,601.47L243.59,601.47L243.59,628.35L234.19,628.35L234.19,601.47" style="vector-effect: non-scaling-stroke; fill: none; stroke: rgb(0, 0, 0); stroke-opacity: 1; stroke-width: 2px; opacity: 1;"/></g><g class="points"/><g class="text"/></g><g class="trace scatter tracef2f093" style="stroke-miterlimit: 2; opacity: 1;"><g class="fills"><g><path class="js-fill" d="M282.3,296.6L295.21,296.6L295.21,321.69L282.3,321.69L282.3,296.6Z" style="fill: rgb(128, 128, 128); fill-opacity: 1; stroke-width: 0;"/></g></g><g class="errorbars"/><g class="lines"><path class="js-line" d="M282.3,296.6L295.21,296.6L295.21,321.69L282.3,321.69L282.3,296.6" style="vector-effect: non-scaling-stroke; fill: none; stroke: rgb(0, 0, 0); stroke-opacity: 1; stroke-width: 2px; opacity: 1;"/></g><g class="points"/><g class="text"/></g><g class="trace scatter tracedc4420" style="stroke-miterlimit: 2; opacity: 1;"><g class="fills"><g><path class="js-fill" d="M282.3,448.31L295.21,448.31L295.21,473.4L282.3,473.4L282.3,448.31Z" style="fill: rgb(128, 128, 128); fill-opacity: 1; stroke-width: 0;"/></g></g><g class="errorbars"/><g class="lines"><path class="js-line" d="M282.3,448.31L295.21,448.31L295.21,473.4L282.3,473.4L282.3,448.31" style="vector-effect: non-scaling-stroke; fill: none; stroke: rgb(0, 0, 0); stroke-opacity: 1; stroke-width: 2px; opacity: 1;"/></g><g class="points"/><g class="text"/></g><g class="trace scatter trace83027a" style="stroke-miterlimit: 2; opacity: 1;"><g class="fills"><g><path class="js-fill" d="M0,0Z" style="stroke-width: 0;"/></g></g><g class="errorbars"/><g class="lines"/><g class="points"/><g class="text"/></g><g class="trace scatter trace17d25e" style="stroke-miterlimit: 2; opacity: 1;"><g class="fills"/><g class="errorbars"/><g class="lines"/><g class="points"><path class="point" transform="translate(65.02,139.83)" d="M0,1.7l1.7,1.7l1.7,-1.7l-1.7,-1.7l1.7,-1.7l-1.7,-1.7l-1.7,1.7l-1.7,-1.7l-1.7,1.7l1.7,1.7l-1.7,1.7l1.7,1.7Z" style="opacity: 1; stroke-width: 0px; fill: rgb(0, 0, 0); fill-opacity: 1;"/><path class="point" transform="translate(65.69,139.83)" d="M0,1.7l1.7,1.7l1.7,-1.7l-1.7,-1.7l1.7,-1.7l-1.7,-1.7l-1.7,1.7l-1.7,-1.7l-1.7,1.7l1.7,1.7l-1.7,1.7l1.7,1.7Z" style="opacity: 1; stroke-width: 0px; fill: rgb(0, 0, 0); fill-opacity: 1;"/><path class="point" transform="translate(202.64,76.27)" d="M0,1.7l1.7,1.7l1.7,-1.7l-1.7,-1.7l1.7,-1.7l-1.7,-1.7l-1.7,1.7l-1.7,-1.7l-1.7,1.7l1.7,1.7l-1.7,1.7l1.7,1.7Z" style="opacity: 1; stroke-width: 0px; fill: rgb(0, 0, 0); fill-opacity: 1;"/><path class="point" transform="translate(155.98,85.72)" d="M0,1.7l1.7,1.7l1.7,-1.7l-1.7,-1.7l1.7,-1.7l-1.7,-1.7l-1.7,1.7l-1.7,-1.7l-1.7,1.7l1.7,1.7l-1.7,1.7l1.7,1.7Z" style="opacity: 1; stroke-width: 0px; fill: rgb(0, 0, 0); fill-opacity: 1;"/><path class="point" transform="translate(152.36,236.83)" d="M0,1.7l1.7,1.7l1.7,-1.7l-1.7,-1.7l1.7,-1.7l-1.7,-1.7l-1.7,1.7l-1.7,-1.7l-1.7,1.7l1.7,1.7l-1.7,1.7l1.7,1.7Z" style="opacity: 1; stroke-width: 0px; fill: rgb(0, 0, 0); fill-opacity: 1;"/><path class="point" transform="translate(185.2,305.2)" d="M0,1.7l1.7,1.7l1.7,-1.7l-1.7,-1.7l1.7,-1.7l-1.7,-1.7l-1.7,1.7l-1.7,-1.7l-1.7,1.7l1.7,1.7l-1.7,1.7l1.7,1.7Z" style="opacity: 1; stroke-width: 0px; fill: rgb(0, 0, 0); fill-opacity: 1;"/><path class="point" transform="translate(194.73,343.72)" d="M0,1.7l1.7,1.7l1.7,-1.7l-1.7,-1.7l1.7,-1.7l-1.7,-1.7l-1.7,1.7l-1.7,-1.7l-1.7,1.7l1.7,1.7l-1.7,1.7l1.7,1.7Z" style="opacity: 1; stroke-width: 0px; fill: rgb(0, 0, 0); fill-opacity: 1;"/><path class="point" transform="translate(197.98,368.96)" d="M0,1.7l1.7,1.7l1.7,-1.7l-1.7,-1.7l1.7,-1.7l-1.7,-1.7l-1.7,1.7l-1.7,-1.7l-1.7,1.7l1.7,1.7l-1.7,1.7l1.7,1.7Z" style="opacity: 1; stroke-width: 0px; fill: rgb(0, 0, 0); fill-opacity: 1;"/><path class="point" transform="translate(198.52,390.25)" d="M0,1.7l1.7,1.7l1.7,-1.7l-1.7,-1.7l1.7,-1.7l-1.7,-1.7l-1.7,1.7l-1.7,-1.7l-1.7,1.7l1.7,1.7l-1.7,1.7l1.7,1.7Z" style="opacity: 1; stroke-width: 0px; fill: rgb(0, 0, 0); fill-opacity: 1;"/><path class="point" transform="translate(196.8,412.76)" d="M0,1.7l1.7,1.7l1.7,-1.7l-1.7,-1.7l1.7,-1.7l-1.7,-1.7l-1.7,1.7l-1.7,-1.7l-1.7,1.7l1.7,1.7l-1.7,1.7l1.7,1.7Z" style="opacity: 1; stroke-width: 0px; fill: rgb(0, 0, 0); fill-opacity: 1;"/><path class="point" transform="translate(191.26,442.93)" d="M0,1.7l1.7,1.7l1.7,-1.7l-1.7,-1.7l1.7,-1.7l-1.7,-1.7l-1.7,1.7l-1.7,-1.7l-1.7,1.7l1.7,1.7l-1.7,1.7l1.7,1.7Z" style="opacity: 1; stroke-width: 0px; fill: rgb(0, 0, 0); fill-opacity: 1;"/><path class="point" transform="translate(173.85,494.35)" d="M0,1.7l1.7,1.7l1.7,-1.7l-1.7,-1.7l1.7,-1.7l-1.7,-1.7l-1.7,1.7l-1.7,-1.7l-1.7,1.7l1.7,1.7l-1.7,1.7l1.7,1.7Z" style="opacity: 1; stroke-width: 0px; fill: rgb(0, 0, 0); fill-opacity: 1;"/><path class="point" transform="translate(111.65,592.24)" d="M0,1.7l1.7,1.7l1.7,-1.7l-1.7,-1.7l1.7,-1.7l-1.7,-1.7l-1.7,1.7l-1.7,-1.7l-1.7,1.7l1.7,1.7l-1.7,1.7l1.7,1.7Z" style="opacity: 1; stroke-width: 0px; fill: rgb(0, 0, 0); fill-opacity: 1;"/><path class="point" transform="translate(71.36,505.64)" d="M0,1.7l1.7,1.7l1.7,-1.7l-1.7,-1.7l1.7,-1.7l-1.7,-1.7l-1.7,1.7l-1.7,-1.7l-1.7,1.7l1.7,1.7l-1.7,1.7l1.7,1.7Z" style="opacity: 1; stroke-width: 0px; fill: rgb(0, 0, 0); fill-opacity: 1;"/><path class="point" transform="translate(64.97,439.6)" d="M0,1.7l1.7,1.7l1.7,-1.7l-1.7,-1.7l1.7,-1.7l-1.7,-1.7l-1.7,1.7l-1.7,-1.7l-1.7,1.7l1.7,1.7l-1.7,1.7l1.7,1.7Z" style="opacity: 1; stroke-width: 0px; fill: rgb(0, 0, 0); fill-opacity: 1;"/><path class="point" transform="translate(63.64,395.09)" d="M0,1.7l1.7,1.7l1.7,-1.7l-1.7,-1.7l1.7,-1.7l-1.7,-1.7l-1.7,1.7l-1.7,-1.7l-1.7,1.7l1.7,1.7l-1.7,1.7l1.7,1.7Z" style="opacity: 1; stroke-width: 0px; fill: rgb(0, 0, 0); fill-opacity: 1;"/><path class="point" transform="translate(64.03,353.94)" d="M0,1.7l1.7,1.7l1.7,-1.7l-1.7,-1.7l1.7,-1.7l-1.7,-1.7l-1.7,1.7l-1.7,-1.7l-1.7,1.7l1.7,1.7l-1.7,1.7l1.7,1.7Z" style="opacity: 1; stroke-width: 0px; fill: rgb(0, 0, 0); fill-opacity: 1;"/><path class="point" transform="translate(66.95,301.78)" d="M0,1.7l1.7,1.7l1.7,-1.7l-1.7,-1.7l1.7,-1.7l-1.7,-1.7l-1.7,1.7l-1.7,-1.7l-1.7,1.7l1.7,1.7l-1.7,1.7l1.7,1.7Z" style="opacity: 1; stroke-width: 0px; fill: rgb(0, 0, 0); fill-opacity: 1;"/><path class="point" transform="translate(81.54,212.88)" d="M0,1.7l1.7,1.7l1.7,-1.7l-1.7,-1.7l1.7,-1.7l-1.7,-1.7l-1.7,1.7l-1.7,-1.7l-1.7,1.7l1.7,1.7l-1.7,1.7l1.7,1.7Z" style="opacity: 1; stroke-width: 0px; fill: rgb(0, 0, 0); fill-opacity: 1;"/></g><g class="text"/></g></g></g><g class="overplot"/><path class="xlines-above crisp" d="M0,0" style="fill: none;"/><path class="ylines-above crisp" d="M0,0" style="fill: none;"/><g class="overlines-above"/><g class="xaxislayer-above"><g class="xtick"><text text-anchor="middle" x="0" y="398" transform="translate(50.97,0)" style="font-family: 'Open Sans', verdana, arial, sans-serif; font-size: 12px; fill: rgb(42, 63, 95); fill-opacity: 1; white-space: pre; opacity: 1;">0</text></g><g class="xtick"><text text-anchor="middle" x="0" y="398" style="font-family: 'Open Sans', verdana, arial, sans-serif; font-size: 12px; fill: rgb(42, 63, 95); fill-opacity: 1; white-space: pre; opacity: 1;" transform="translate(118.1,0)">2</text></g><g class="xtick"><text text-anchor="middle" x="0" y="398" style="font-family: 'Open Sans', verdana, arial, sans-serif; font-size: 12px; fill: rgb(42, 63, 95); fill-opacity: 1; white-space: pre; opacity: 1;" transform="translate(185.24,0)">4</text></g><g class="xtick"><text text-anchor="middle" x="0" y="398" style="font-family: 'Open Sans', verdana, arial, sans-serif; font-size: 12px; fill: rgb(42, 63, 95); fill-opacity: 1; white-space: pre; opacity: 1;" transform="translate(252.37,0)">6</text></g><g class="xtick"><text text-anchor="middle" x="0" y="398" style="font-family: 'Open Sans', verdana, arial, sans-serif; font-size: 12px; fill: rgb(42, 63, 95); fill-opacity: 1; white-space: pre; opacity: 1;" transform="translate(319.5,0)">8</text></g></g><g class="yaxislayer-above"><g class="ytick"><text text-anchor="end" x="40" y="4.199999999999999" transform="translate(0,385)" style="font-family: 'Open Sans', verdana, arial, sans-serif; font-size: 12px; fill: rgb(42, 63, 95); fill-opacity: 1; white-space: pre; opacity: 1;">0</text></g><g class="ytick"><text text-anchor="end" x="40" y="4.199999999999999" style="font-family: 'Open Sans', verdana, arial, sans-serif; font-size: 12px; fill: rgb(42, 63, 95); fill-opacity: 1; white-space: pre; opacity: 1;" transform="translate(0,312.36)">2</text></g><g class="ytick"><text text-anchor="end" x="40" y="4.199999999999999" style="font-family: 'Open Sans', verdana, arial, sans-serif; font-size: 12px; fill: rgb(42, 63, 95); fill-opacity: 1; white-space: pre; opacity: 1;" transform="translate(0,239.72)">4</text></g><g class="ytick"><text text-anchor="end" x="40" y="4.199999999999999" style="font-family: 'Open Sans', verdana, arial, sans-serif; font-size: 12px; fill: rgb(42, 63, 95); fill-opacity: 1; white-space: pre; opacity: 1;" transform="translate(0,167.08)">6</text></g><g class="ytick"><text text-anchor="end" x="40" y="4.199999999999999" style="font-family: 'Open Sans', verdana, arial, sans-serif; font-size: 12px; fill: rgb(42, 63, 95); fill-opacity: 1; white-space: pre; opacity: 1;" transform="translate(0,94.43)">8</text></g><g class="ytick"><text text-anchor="end" x="40" y="4.199999999999999" style="font-family: 'Open Sans', verdana, arial, sans-serif; font-size: 12px; fill: rgb(42, 63, 95); fill-opacity: 1; white-space: pre; opacity: 1;" transform="translate(0,21.79)">10</text></g></g><g class="overaxes-above"/></g></g><g class="polarlayer"/><g class="smithlayer"/><g class="ternarylayer"/><g class="geolayer"/><g class="funnelarealayer"/><g class="pielayer"/><g class="iciclelayer"/><g class="treemaplayer"/><g class="sunburstlayer"/><g class="glimages"/><defs id="topdefs-cb10c2"><g class="clips"/><clipPath id="legendcb10c2"><rect width="151" height="208" x="0" y="0"/></clipPath></defs><g class="layer-above"><g class="imagelayer"/><g class="shapelayer"/></g><g class="infolayer"><g class="legend" pointer-events="all" transform="translate(349,0)"><rect class="bg" shape-rendering="crispEdges" style="stroke: rgb(68, 68, 68); stroke-opacity: 1; fill: rgb(0, 0, 0); fill-opacity: 0; stroke-width: 0px;" width="151" height="208" x="0" y="0"/><g class="scrollbox" transform="" clip-path="url(#legendcb10c2)"><g class="groups"><g class="traces" transform="translate(0,14.5)" style="opacity: 1;"><text class="legendtext" text-anchor="start" x="40" y="4.680000000000001" style="font-family: 'Open Sans', verdana, arial, sans-serif; font-size: 12px; fill: rgb(42, 63, 95); fill-opacity: 1; white-space: pre;">Separatrix</text><g class="layers" style="opacity: 1;"><g class="legendfill"/><g class="legendlines"><path class="js-line" d="M5,0h30" style="fill: none; stroke: rgb(178, 10, 28); stroke-opacity: 1; stroke-width: 2px;"/></g><g class="legendsymbols"><g class="legendpoints"/></g></g><rect class="legendtoggle" x="0" y="-9.5" width="145.078125" height="19" style="fill: rgb(0, 0, 0); fill-opacity: 0;"/></g><g class="traces" transform="translate(0,33.5)" style="opacity: 1;"><text class="legendtext" text-anchor="start" x="40" y="4.680000000000001" style="font-family: 'Open Sans', verdana, arial, sans-serif; font-size: 12px; fill: rgb(42, 63, 95); fill-opacity: 1; white-space: pre;">X-Point</text><g class="layers" style="opacity: 1;"><g class="legendfill"/><g class="legendlines"/><g class="legendsymbols"><g class="legendpoints"><path class="scatterpts" transform="translate(20,0)" d="M0,1.7l1.7,1.7l1.7,-1.7l-1.7,-1.7l1.7,-1.7l-1.7,-1.7l-1.7,1.7l-1.7,-1.7l-1.7,1.7l1.7,1.7l-1.7,1.7l1.7,1.7Z" style="opacity: 1; stroke-width: 0px; fill: rgb(255, 0, 0); fill-opacity: 1;"/></g></g></g><rect class="legendtoggle" x="0" y="-9.5" width="145.078125" height="19" style="fill: rgb(0, 0, 0); fill-opacity: 0;"/></g><g class="traces" transform="translate(0,52.5)" style="opacity: 1;"><text class="legendtext" text-anchor="start" x="40" y="4.680000000000001" style="font-family: 'Open Sans', verdana, arial, sans-serif; font-size: 12px; fill: rgb(42, 63, 95); fill-opacity: 1; white-space: pre;">First Wall</text><g class="layers" style="opacity: 1;"><g class="legendfill"/><g class="legendlines"><path class="js-line" d="M5,0h30" style="fill: none; stroke: rgb(176, 196, 222); stroke-opacity: 1; stroke-width: 2px;"/></g><g class="legendsymbols"><g class="legendpoints"/></g></g><rect class="legendtoggle" x="0" y="-9.5" width="145.078125" height="19" style="fill: rgb(0, 0, 0); fill-opacity: 0;"/></g><g class="traces" transform="translate(0,79.1)" style="opacity: 1;"><text class="legendtext" text-anchor="start" x="40" y="-3.1200000000000006" style="font-family: 'Open Sans', verdana, arial, sans-serif; font-size: 12px; fill: rgb(42, 63, 95); fill-opacity: 1; white-space: pre;"><tspan class="line" dy="0em" x="40" y="-3.1200000000000006">Inner Strike</tspan><tspan class="line" dy="1.3em" x="40" y="-3.1200000000000006">Plate</tspan></text><g class="layers" style="opacity: 1;"><g class="legendfill"/><g class="legendlines"><path class="js-line" d="M5,0h30" style="fill: none; stroke: rgb(0, 77, 64); stroke-opacity: 1; stroke-width: 2px;"/></g><g class="legendsymbols"><g class="legendpoints"/></g></g><rect class="legendtoggle" x="0" y="-17.1" width="145.078125" height="34.2" style="fill: rgb(0, 0, 0); fill-opacity: 0;"/></g><g class="traces" transform="translate(0,113.30000000000001)" style="opacity: 1;"><text class="legendtext" text-anchor="start" x="40" y="-3.1200000000000006" style="font-family: 'Open Sans', verdana, arial, sans-serif; font-size: 12px; fill: rgb(42, 63, 95); fill-opacity: 1; white-space: pre;"><tspan class="line" dy="0em" x="40" y="-3.1200000000000006">Outer Strike</tspan><tspan class="line" dy="1.3em" x="40" y="-3.1200000000000006">Plate</tspan></text><g class="layers" style="opacity: 1;"><g class="legendfill"/><g class="legendlines"><path class="js-line" d="M5,0h30" style="fill: none; stroke: rgb(30, 136, 229); stroke-opacity: 1; stroke-width: 2px;"/></g><g class="legendsymbols"><g class="legendpoints"/></g></g><rect class="legendtoggle" x="0" y="-17.1" width="145.078125" height="34.2" style="fill: rgb(0, 0, 0); fill-opacity: 0;"/></g><g class="traces" transform="translate(0,147.5)" style="opacity: 1;"><text class="legendtext" text-anchor="start" x="40" y="-3.1200000000000006" style="font-family: 'Open Sans', verdana, arial, sans-serif; font-size: 12px; fill: rgb(42, 63, 95); fill-opacity: 1; white-space: pre;"><tspan class="line" dy="0em" x="40" y="-3.1200000000000006">Permissible</tspan><tspan class="line" dy="1.3em" x="40" y="-3.1200000000000006">Zone</tspan></text><g class="layers" style="opacity: 0.5;"><g class="legendfill"><path class="js-fill" d="M5,-2h30v6h-30z" style="stroke-width: 0; fill: rgb(255, 0, 0); fill-opacity: 1;"/></g><g class="legendlines"><path class="js-line" d="M5,-2h30" style="fill: none; stroke: rgb(128, 0, 0); stroke-opacity: 1; stroke-width: 2px;"/></g><g class="legendsymbols"><g class="legendpoints"/></g></g><rect class="legendtoggle" x="0" y="-17.1" width="145.078125" height="34.2" style="fill: rgb(0, 0, 0); fill-opacity: 0;"/></g><g class="traces" transform="translate(0,174.10000000000002)" style="opacity: 1;"><text class="legendtext" text-anchor="start" x="40" y="4.680000000000001" style="font-family: 'Open Sans', verdana, arial, sans-serif; font-size: 12px; fill: rgb(42, 63, 95); fill-opacity: 1; white-space: pre;">PF Coil</text><g class="layers" style="opacity: 1;"><g class="legendfill"><path class="js-fill" d="M5,-2h30v6h-30z" style="stroke-width: 0; fill: rgb(128, 128, 128); fill-opacity: 1;"/></g><g class="legendlines"><path class="js-line" d="M5,-2h30" style="fill: none; stroke: rgb(0, 0, 0); stroke-opacity: 1; stroke-width: 2px;"/></g><g class="legendsymbols"><g class="legendpoints"/></g></g><rect class="legendtoggle" x="0" y="-9.5" width="145.078125" height="19" style="fill: rgb(0, 0, 0); fill-opacity: 0;"/></g><g class="traces" transform="translate(0,193.10000000000002)" style="opacity: 1;"><text class="legendtext" text-anchor="start" x="40" y="4.680000000000001" style="font-family: 'Open Sans', verdana, arial, sans-serif; font-size: 12px; fill: rgb(42, 63, 95); fill-opacity: 1; white-space: pre;">Isoflux constraint</text><g class="layers" style="opacity: 1;"><g class="legendfill"/><g class="legendlines"/><g class="legendsymbols"><g class="legendpoints"><path class="scatterpts" transform="translate(20,0)" d="M0,1.7l1.7,1.7l1.7,-1.7l-1.7,-1.7l1.7,-1.7l-1.7,-1.7l-1.7,1.7l-1.7,-1.7l-1.7,1.7l1.7,1.7l-1.7,1.7l1.7,1.7Z" style="opacity: 1; stroke-width: 0px; fill: rgb(0, 0, 0); fill-opacity: 1;"/></g></g></g><rect class="legendtoggle" x="0" y="-9.5" width="145.078125" height="19" style="fill: rgb(0, 0, 0); fill-opacity: 0;"/></g></g></g><rect class="scrollbar" rx="20" ry="3" width="0" height="0" style="fill: rgb(128, 139, 164); fill-opacity: 1;" x="0" y="0"/></g><g class="g-gtitle"/><g class="g-xtitle" transform="translate(0,-2.8000000000000114)"><text class="xtitle" x="192" y="424.8" text-anchor="middle" style="font-family: 'Open Sans', verdana, arial, sans-serif; font-size: 14px; fill: rgb(42, 63, 95); opacity: 1; font-weight: normal; white-space: pre;">Radius [m]</text></g><g class="g-ytitle" transform="translate(13.5654296875,0)"><text class="ytitle" transform="rotate(-90,0.43437500000000284,192.5)" x="0.43437500000000284" y="192.5" text-anchor="middle" style="font-family: 'Open Sans', verdana, arial, sans-serif; font-size: 14px; fill: rgb(42, 63, 95); opacity: 1; font-weight: normal; white-space: pre;">Height [m]</text></g><g class="annotation" data-index="0" style="opacity: 1;"><g class="annotation-text-g" transform="rotate(0,59.5,118.91999999999999)"><g class="cursor-pointer" transform="translate(41,109)"><rect class="bg" x="0.5" y="0.5" width="36" height="18" style="stroke-width: 1px; stroke: rgb(0, 0, 0); stroke-opacity: 0; fill: rgb(0, 0, 0); fill-opacity: 0;"/><text class="annotation-text" text-anchor="middle" x="18.453125" y="14" style="font-family: 'Open Sans', verdana, arial, sans-serif; font-size: 12px; fill: rgb(42, 63, 95); fill-opacity: 1; white-space: pre;">QS_1</text></g></g><g class="annotation-arrow-g" style="opacity: 1;"><path d="M65.5,127.91999999999999L79.5,148.92" style="stroke-width: 1px; stroke: rgb(42, 63, 95); stroke-opacity: 1; stroke-dasharray: 0px, 0px, 24.6389px, 25.2389px;"/><path d="M-2.4,-3V3L0.6,0Z" transform="translate(79.16718292236328,148.42076110839844)rotate(56.308720121512714)" style="fill: rgb(42, 63, 95); stroke-width: 0;"/></g></g><g class="annotation" data-index="1" style="opacity: 1;"><g class="annotation-text-g" transform="rotate(0,59.5,170.85)"><g class="cursor-pointer" transform="translate(41,161)"><rect class="bg" x="0.5" y="0.5" width="36" height="18" style="stroke-width: 1px; stroke: rgb(0, 0, 0); stroke-opacity: 0; fill: rgb(0, 0, 0); fill-opacity: 0;"/><text class="annotation-text" text-anchor="middle" x="18.453125" y="14" style="font-family: 'Open Sans', verdana, arial, sans-serif; font-size: 12px; fill: rgb(42, 63, 95); fill-opacity: 1; white-space: pre;">QS_2</text></g></g><g class="annotation-arrow-g" style="opacity: 1;"><path d="M65.5,179.85L79.5,200.85" style="stroke-width: 1px; stroke: rgb(42, 63, 95); stroke-opacity: 1; stroke-dasharray: 0px, 0px, 24.6389px, 25.2389px;"/><path d="M-2.4,-3V3L0.6,0Z" transform="translate(79.16718292236328,200.35076904296875)rotate(56.308720121512714)" style="fill: rgb(42, 63, 95); stroke-width: 0;"/></g></g><g class="annotation" data-index="2" style="opacity: 1;"><g class="annotation-text-g" transform="rotate(0,103.14,41.790000000000006)"><g class="cursor-pointer" transform="translate(87,32)"><rect class="bg" x="0.5" y="0.5" width="32" height="18" style="stroke-width: 1px; stroke: rgb(0, 0, 0); stroke-opacity: 0; fill: rgb(0, 0, 0); fill-opacity: 0;"/><text class="annotation-text" text-anchor="middle" x="16.703125" y="14" style="font-family: 'Open Sans', verdana, arial, sans-serif; font-size: 12px; fill: rgb(42, 63, 95); fill-opacity: 1; white-space: pre;">PF_1</text></g></g><g class="annotation-arrow-g" style="opacity: 1;"><path d="M109.14,50.790000000000006L123.14,71.79" style="stroke-width: 1px; stroke: rgb(42, 63, 95); stroke-opacity: 1; stroke-dasharray: 0px, 0px, 24.6389px, 25.2389px;"/><path d="M-2.4,-3V3L0.6,0Z" transform="translate(122.80718231201172,71.290771484375)rotate(56.308720121512714)" style="fill: rgb(42, 63, 95); stroke-width: 0;"/></g></g><g class="annotation" data-index="3" style="opacity: 1;"><g class="annotation-text-g" transform="rotate(0,165.24,11.770000000000003)"><g class="cursor-pointer" transform="translate(149,2)"><rect class="bg" x="0.5" y="0.5" width="32" height="18" style="stroke-width: 1px; stroke: rgb(0, 0, 0); stroke-opacity: 0; fill: rgb(0, 0, 0); fill-opacity: 0;"/><text class="annotation-text" text-anchor="middle" x="16.703125" y="14" style="font-family: 'Open Sans', verdana, arial, sans-serif; font-size: 12px; fill: rgb(42, 63, 95); fill-opacity: 1; white-space: pre;">PF_2</text></g></g><g class="annotation-arrow-g" style="opacity: 1;"><path d="M171.24,20.770000000000003L185.24,41.77" style="stroke-width: 1px; stroke: rgb(42, 63, 95); stroke-opacity: 1; stroke-dasharray: 0px, 0px, 24.6389px, 25.2389px;"/><path d="M-2.4,-3V3L0.6,0Z" transform="translate(184.9071807861328,41.27077102661133)rotate(56.312357281649774)" style="fill: rgb(42, 63, 95); stroke-width: 0;"/></g></g><g class="annotation" data-index="4" style="opacity: 1;"><g class="annotation-text-g" transform="rotate(0,259.76,8.14)"><g class="cursor-pointer" transform="translate(243,-1)"><rect class="bg" x="0.5" y="0.5" width="32" height="18" style="stroke-width: 1px; stroke: rgb(0, 0, 0); stroke-opacity: 0; fill: rgb(0, 0, 0); fill-opacity: 0;"/><text class="annotation-text" text-anchor="middle" x="16.703125" y="14" style="font-family: 'Open Sans', verdana, arial, sans-serif; font-size: 12px; fill: rgb(42, 63, 95); fill-opacity: 1; white-space: pre;">PF_3</text></g></g><g class="annotation-arrow-g" style="opacity: 1;"><path d="M265.76,17.14L279.76,38.14" style="stroke-width: 1px; stroke: rgb(42, 63, 95); stroke-opacity: 1; stroke-dasharray: 0px, 0px, 24.6389px, 25.2389px;"/><path d="M-2.4,-3V3L0.6,0Z" transform="translate(279.42718505859375,37.640769958496094)rotate(56.305083269214975)" style="fill: rgb(42, 63, 95); stroke-width: 0;"/></g></g><g class="annotation" data-index="5" style="opacity: 1;"><g class="annotation-text-g" transform="rotate(0,259.89,125.09)"><g class="cursor-pointer" transform="translate(243,116)"><rect class="bg" x="0.5" y="0.5" width="32" height="18" style="stroke-width: 1px; stroke: rgb(0, 0, 0); stroke-opacity: 0; fill: rgb(0, 0, 0); fill-opacity: 0;"/><text class="annotation-text" text-anchor="middle" x="16.703125" y="14" style="font-family: 'Open Sans', verdana, arial, sans-serif; font-size: 12px; fill: rgb(42, 63, 95); fill-opacity: 1; white-space: pre;">PF_4</text></g></g><g class="annotation-arrow-g" style="opacity: 1;"><path d="M265.89,134.09L279.89,155.09" style="stroke-width: 1px; stroke: rgb(42, 63, 95); stroke-opacity: 1; stroke-dasharray: 0px, 0px, 24.6389px, 25.2389px;"/><path d="M-2.4,-3V3L0.6,0Z" transform="translate(279.55718994140625,154.59075927734375)rotate(56.305083269214975)" style="fill: rgb(42, 63, 95); stroke-width: 0;"/></g></g><g class="annotation" data-index="6" style="opacity: 1;"><g class="annotation-text-g" transform="rotate(0,309.75,279.15)"><g class="cursor-pointer" transform="translate(293,270)"><rect class="bg" x="0.5" y="0.5" width="32" height="18" style="stroke-width: 1px; stroke: rgb(0, 0, 0); stroke-opacity: 0; fill: rgb(0, 0, 0); fill-opacity: 0;"/><text class="annotation-text" text-anchor="middle" x="16.703125" y="14" style="font-family: 'Open Sans', verdana, arial, sans-serif; font-size: 12px; fill: rgb(42, 63, 95); fill-opacity: 1; white-space: pre;">PF_5</text></g></g><g class="annotation-arrow-g" style="opacity: 1;"><path d="M315.75,288.15L329.75,309.15" style="stroke-width: 1px; stroke: rgb(42, 63, 95); stroke-opacity: 1; stroke-dasharray: 0px, 0px, 24.6389px, 25.2389px;"/><path d="M-2.4,-3V3L0.6,0Z" transform="translate(329.41717529296875,308.6507568359375)rotate(56.30023283309153)" style="fill: rgb(42, 63, 95); stroke-width: 0;"/></g></g></g></svg>